运行 java测试 案例 com.example.demo.FFmpegJNITest
sbc run -t -v /home/user/JAVA-TEST/java-rtf-test/ffmpeg/files:/tmp@/home/user/JAVA-TEST/java-rtf-test/rmi.sh:/opt/app/lib/logback-classic-1.2.3.jar@/home/user/JAVA-TEST/java-rtf-test/test-classes/com:/opt/app/test-classes/com -p docker.bplatform.demo/java_rtf_lx:2.1 docker.bplatform.demo/java_rtf_test_all:1.0  /opt/app/runTest com.example.demo.FFmpegJNITest encode_video /tmp/03.yuv /tmp/04.xvid
TEST_DIR=/opt/app
/usr/lib/jvm/java-11-openjdk-mips64el/bin/java -classpath /opt/app/lib/*:/opt/app/classes:/opt/app/test-classes com.example.demo.FFmpegJNITest encode_video /tmp/03.yuv /tmp/04.xvid
OpenJDK 64-Bit Zero VM warning: You have loaded library /usr/lib/libffmpeg-jni.so which might have disabled stack guard. The VM will try to fix the stack guard now.
It's highly recommended that you fix the library with 'execstack -c <libfile>', or link it with '-z noexecstack'.
视频编码
[48;5;0m[38;5;213m[NULL @ 0x7ffff06d22d0] [0m[48;5;0m[38;5;196mUnable to find a suitable output format for '/tmp/04.xvid'
[0mCould not deduce output format from file extension: using MPEG.
Output #0, mpeg, to '/tmp/04.xvid':
    Stream #0:0: Video: mpeg1video, yuv420p, 640x480, q=2-31, 400 kb/s, 25 tbn
[48;5;0m[38;5;213m[mpeg @ 0x7ffff06d22d0] [0m[48;5;0m[38;5;226mVBV buffer size not set, using default size of 230KB
If you want the mpeg file to be compliant to some specification
Like DVD, VCD or others, make sure you set the correct buffer size
[0mpts:0 pts_time:0 dts:-3600 dts_time:-0.04 duration:0 duration_time:0 stream_index:0
pts:3600 pts_time:0.04 dts:0 dts_time:0 duration:0 duration_time:0 stream_index:0
[48;5;0m[38;5;213m[mpeg @ 0x7ffff06d22d0] [0m[48;5;0m[38;5;196mbuffer underflow st=0 bufi=9796 size=20579
[0m[48;5;0m[38;5;213m[mpeg @ 0x7ffff06d22d0] [0m[48;5;0m[38;5;196mbuffer underflow st=0 bufi=11837 size=20579
[0m[48;5;0m[38;5;213m[mpeg @ 0x7ffff06d22d0] [0m[48;5;0m[38;5;196mbuffer underflow st=0 bufi=13878 size=20579
[0m[48;5;0m[38;5;213m[mpeg @ 0x7ffff06d22d0] [0m[48;5;0m[38;5;196mbuffer underflow st=0 bufi=15919 size=20579
[0m[48;5;0m[38;5;213m[mpeg @ 0x7ffff06d22d0] [0m[48;5;0m[38;5;196mbuffer underflow st=0 bufi=17960 size=20579
[0m[48;5;0m[38;5;213m[mpeg @ 0x7ffff06d22d0] [0m[48;5;0m[38;5;196mbuffer underflow st=0 bufi=20001 size=20579
[0mpts:7200 pts_time:0.08 dts:3600 dts_time:0.04 duration:0 duration_time:0 stream_index:0
[48;5;0m[38;5;213m[mpeg @ 0x7ffff06d22d0] [0m[48;5;0m[38;5;196mbuffer underflow st=0 bufi=1454 size=22136
[0m[48;5;0m[38;5;213m[mpeg @ 0x7ffff06d22d0] [0m[48;5;0m[38;5;196mbuffer underflow st=0 bufi=3495 size=22136
[0m[48;5;0m[38;5;213m[mpeg @ 0x7ffff06d22d0] [0m[48;5;0m[38;5;196mbuffer underflow st=0 bufi=5536 size=22136
[0m[48;5;0m[38;5;213m[mpeg @ 0x7ffff06d22d0] [0m[48;5;0m[38;5;196mbuffer underflow st=0 bufi=7577 size=22136
[0m[48;5;0m[38;5;213m[mpeg @ 0x7ffff06d22d0] [0m[48;5;0m[38;5;196mbuffer underflow st=0 bufi=9618 size=22136
[0m[48;5;0m[38;5;213m[mpeg @ 0x7ffff06d22d0] [0m[48;5;0m[38;5;196mbuffer underflow st=0 bufi=11659 size=22136
[0m[48;5;0m[38;5;213m[mpeg @ 0x7ffff06d22d0] [0m[48;5;0m[38;5;196mbuffer underflow st=0 bufi=13700 size=22136
[0m[48;5;0m[38;5;213m[mpeg @ 0x7ffff06d22d0] [0m[48;5;0m[38;5;196mbuffer underflow st=0 bufi=15741 size=22136
[0m[48;5;0m[38;5;213m[mpeg @ 0x7ffff06d22d0] [0m[48;5;0m[38;5;196mbuffer underflow st=0 bufi=17782 size=22136
[0m[48;5;0m[38;5;213m[mpeg @ 0x7ffff06d22d0] [0m[48;5;0m[38;5;196mbuffer underflow st=0 bufi=19823 size=22136
[0m[48;5;0m[38;5;213m[mpeg @ 0x7ffff06d22d0] [0m[48;5;0m[38;5;196mbuffer underflow st=0 bufi=21864 size=22136
[0mpts:10800 pts_time:0.12 dts:7200 dts_time:0.08 duration:0 duration_time:0 stream_index:0
[48;5;0m[38;5;213m[mpeg @ 0x7ffff06d22d0] [0m[48;5;0m[38;5;196mbuffer underflow st=0 bufi=1760 size=6398
[0m[48;5;0m[38;5;213m[mpeg @ 0x7ffff06d22d0] [0m[48;5;0m[38;5;196mbuffer underflow st=0 bufi=3801 size=6398
[0m[48;5;0m[38;5;213m[mpeg @ 0x7ffff06d22d0] [0m[48;5;0m[38;5;196mbuffer underflow st=0 bufi=5842 size=6398
[0mpts:14400 pts_time:0.16 dts:10800 dts_time:0.12 duration:0 duration_time:0 stream_index:0
[48;5;0m[38;5;213m[mpeg @ 0x7ffff06d22d0] [0m[48;5;0m[38;5;196mbuffer underflow st=0 bufi=1476 size=4726
[0m[48;5;0m[38;5;213m[mpeg @ 0x7ffff06d22d0] [0m[48;5;0m[38;5;196mbuffer underflow st=0 bufi=3517 size=4726
[0mpts:18000 pts_time:0.2 dts:14400 dts_time:0.16 duration:0 duration_time:0 stream_index:0
[48;5;0m[38;5;213m[mpeg @ 0x7ffff06d22d0] [0m[48;5;0m[38;5;196mbuffer underflow st=0 bufi=823 size=5048
[0m[48;5;0m[38;5;213m[mpeg @ 0x7ffff06d22d0] [0m[48;5;0m[38;5;196mbuffer underflow st=0 bufi=2864 size=5048
[0m[48;5;0m[38;5;213m[mpeg @ 0x7ffff06d22d0] [0m[48;5;0m[38;5;196mbuffer underflow st=0 bufi=4905 size=5048
[0mpts:21600 pts_time:0.24 dts:18000 dts_time:0.2 duration:0 duration_time:0 stream_index:0
[48;5;0m[38;5;213m[mpeg @ 0x7ffff06d22d0] [0m[48;5;0m[38;5;196mbuffer underflow st=0 bufi=1889 size=4543
[0m[48;5;0m[38;5;213m[mpeg @ 0x7ffff06d22d0] [0m[48;5;0m[38;5;196mbuffer underflow st=0 bufi=3930 size=4543
[0mpts:25200 pts_time:0.28 dts:21600 dts_time:0.24 duration:0 duration_time:0 stream_index:0
pts:28800 pts_time:0.32 dts:25200 dts_time:0.28 duration:0 duration_time:0 stream_index:0
[48;5;0m[38;5;213m[mpeg @ 0x7ffff06d22d0] [0m[48;5;0m[38;5;196mbuffer underflow st=0 bufi=602 size=4872
[0m[48;5;0m[38;5;213m[mpeg @ 0x7ffff06d22d0] [0m[48;5;0m[38;5;196mbuffer underflow st=0 bufi=2643 size=4872
[0m[48;5;0m[38;5;213m[mpeg @ 0x7ffff06d22d0] [0m[48;5;0m[38;5;196mbuffer underflow st=0 bufi=4684 size=4872
[0mpts:32400 pts_time:0.36 dts:28800 dts_time:0.32 duration:0 duration_time:0 stream_index:0
[48;5;0m[38;5;213m[mpeg @ 0x7ffff06d22d0] [0m[48;5;0m[38;5;196mbuffer underflow st=0 bufi=1844 size=18641
[0m[48;5;0m[38;5;213m[mpeg @ 0x7ffff06d22d0] [0m[48;5;0m[38;5;196mbuffer underflow st=0 bufi=3885 size=18641
[0m[48;5;0m[38;5;213m[mpeg @ 0x7ffff06d22d0] [0m[48;5;0m[38;5;196mbuffer underflow st=0 bufi=5926 size=18641
[0m[48;5;0m[38;5;213m[mpeg @ 0x7ffff06d22d0] [0m[48;5;0m[38;5;196mbuffer underflow st=0 bufi=7967 size=18641
[0m[48;5;0m[38;5;213m[mpeg @ 0x7ffff06d22d0] [0m[48;5;0m[38;5;196mbuffer underflow st=0 bufi=10008 size=18641
[0m[48;5;0m[38;5;213m[mpeg @ 0x7ffff06d22d0] [0m[48;5;0m[38;5;196mbuffer underflow st=0 bufi=12049 size=18641
[0m[48;5;0m[38;5;213m[mpeg @ 0x7ffff06d22d0] [0m[48;5;0m[38;5;196mbuffer underflow st=0 bufi=14090 size=18641
[0m[48;5;0m[38;5;213m[mpeg @ 0x7ffff06d22d0] [0m[48;5;0m[38;5;196mbuffer underflow st=0 bufi=16131 size=18641
[0m[48;5;0m[38;5;213m[mpeg @ 0x7ffff06d22d0] [0m[48;5;0m[38;5;196mbuffer underflow st=0 bufi=18160 size=18641
[0mpts:36000 pts_time:0.4 dts:32400 dts_time:0.36 duration:0 duration_time:0 stream_index:0
pts:39600 pts_time:0.44 dts:36000 dts_time:0.4 duration:0 duration_time:0 stream_index:0
[48;5;0m[38;5;213m[mpeg @ 0x7ffff06d22d0] [0m[48;5;0m[38;5;196mbuffer underflow st=0 bufi=11 size=9473
[0m[48;5;0m[38;5;213m[mpeg @ 0x7ffff06d22d0] [0m[48;5;0m[38;5;196mbuffer underflow st=0 bufi=2052 size=9473
[0m[48;5;0m[38;5;213m[mpeg @ 0x7ffff06d22d0] [0m[48;5;0m[38;5;196mbuffer underflow st=0 bufi=4093 size=9473
[0m[48;5;0m[38;5;213m[mpeg @ 0x7ffff06d22d0] [0m[48;5;0m[38;5;196mbuffer underflow st=0 bufi=6134 size=9473
[0m[48;5;0m[38;5;213m[mpeg @ 0x7ffff06d22d0] [0m[48;5;0m[38;5;196mbuffer underflow st=0 bufi=8175 size=9473
[0mpts:43200 pts_time:0.48 dts:39600 dts_time:0.44 duration:0 duration_time:0 stream_index:0
[48;5;0m[38;5;213m[mpeg @ 0x7ffff06d22d0] [0m[48;5;0m[38;5;196mbuffer underflow st=0 bufi=734 size=14805
[0m[48;5;0m[38;5;213m[mpeg @ 0x7ffff06d22d0] [0m[48;5;0m[38;5;196mbuffer underflow st=0 bufi=2775 size=14805
[0m[48;5;0m[38;5;213m[mpeg @ 0x7ffff06d22d0] [0m[48;5;0m[38;5;196mbuffer underflow st=0 bufi=4816 size=14805
[0m[48;5;0m[38;5;213m[mpeg @ 0x7ffff06d22d0] [0m[48;5;0m[38;5;196mbuffer underflow st=0 bufi=6857 size=14805
[0m[48;5;0m[38;5;213m[mpeg @ 0x7ffff06d22d0] [0m[48;5;0m[38;5;196mbuffer underflow st=0 bufi=8898 size=14805
[0m[48;5;0m[38;5;213m[mpeg @ 0x7ffff06d22d0] [0m[48;5;0m[38;5;196mbuffer underflow st=0 bufi=10939 size=14805
[0m[48;5;0m[38;5;213m[mpeg @ 0x7ffff06d22d0] [0m[48;5;0m[38;5;196mbuffer underflow st=0 bufi=12980 size=14805
[0mpts:46800 pts_time:0.52 dts:43200 dts_time:0.48 duration:0 duration_time:0 stream_index:0
[48;5;0m[38;5;213m[mpeg @ 0x7ffff06d22d0] [0m[48;5;0m[38;5;196mbuffer underflow st=0 bufi=207 size=1250
[0mpts:50400 pts_time:0.56 dts:46800 dts_time:0.52 duration:0 duration_time:0 stream_index:0
[48;5;0m[38;5;213m[mpeg @ 0x7ffff06d22d0] [0m[48;5;0m[38;5;196mbuffer underflow st=0 bufi=989 size=2138
[0mpts:54000 pts_time:0.6 dts:50400 dts_time:0.56 duration:0 duration_time:0 stream_index:0
[48;5;0m[38;5;213m[mpeg @ 0x7ffff06d22d0] [0m[48;5;0m[38;5;196mbuffer underflow st=0 bufi=883 size=1414
[0mpts:57600 pts_time:0.64 dts:54000 dts_time:0.6 duration:0 duration_time:0 stream_index:0
pts:61200 pts_time:0.68 dts:57600 dts_time:0.64 duration:0 duration_time:0 stream_index:0
[48;5;0m[38;5;213m[mpeg @ 0x7ffff06d22d0] [0m[48;5;0m[38;5;196mbuffer underflow st=0 bufi=395 size=6774
[0m[48;5;0m[38;5;213m[mpeg @ 0x7ffff06d22d0] [0m[48;5;0m[38;5;196mbuffer underflow st=0 bufi=2436 size=6774
[0m[48;5;0m[38;5;213m[mpeg @ 0x7ffff06d22d0] [0m[48;5;0m[38;5;196mbuffer underflow st=0 bufi=4477 size=6774
[0m[48;5;0m[38;5;213m[mpeg @ 0x7ffff06d22d0] [0m[48;5;0m[38;5;196mbuffer underflow st=0 bufi=6518 size=6774
[0mpts:64800 pts_time:0.72 dts:61200 dts_time:0.68 duration:0 duration_time:0 stream_index:0
pts:68400 pts_time:0.76 dts:64800 dts_time:0.72 duration:0 duration_time:0 stream_index:0
[48;5;0m[38;5;213m[mpeg @ 0x7ffff06d22d0] [0m[48;5;0m[38;5;196mbuffer underflow st=0 bufi=539 size=3586
[0m[48;5;0m[38;5;213m[mpeg @ 0x7ffff06d22d0] [0m[48;5;0m[38;5;196mbuffer underflow st=0 bufi=2580 size=3586
[0mpts:72000 pts_time:0.8 dts:68400 dts_time:0.76 duration:0 duration_time:0 stream_index:0
[48;5;0m[38;5;213m[mpeg @ 0x7ffff06d22d0] [0m[48;5;0m[38;5;196mbuffer underflow st=0 bufi=1026 size=1098
[0mpts:75600 pts_time:0.84 dts:72000 dts_time:0.8 duration:0 duration_time:0 stream_index:0
pts:79200 pts_time:0.88 dts:75600 dts_time:0.84 duration:0 duration_time:0 stream_index:0
[48;5;0m[38;5;213m[mpeg @ 0x7ffff06d22d0] [0m[48;5;0m[38;5;196mbuffer underflow st=0 bufi=253 size=1158
[0mpts:82800 pts_time:0.92 dts:79200 dts_time:0.88 duration:0 duration_time:0 stream_index:0
[48;5;0m[38;5;213m[mpeg @ 0x7ffff06d22d0] [0m[48;5;0m[38;5;196mbuffer underflow st=0 bufi=1127 size=2501
[0mpts:86400 pts_time:0.96 dts:82800 dts_time:0.92 duration:0 duration_time:0 stream_index:0
[48;5;0m[38;5;213m[mpeg @ 0x7ffff06d22d0] [0m[48;5;0m[38;5;196mbuffer underflow st=0 bufi=658 size=22283
[0m[48;5;0m[38;5;213m[mpeg @ 0x7ffff06d22d0] [0m[48;5;0m[38;5;196mbuffer underflow st=0 bufi=2699 size=22283
[0m[48;5;0m[38;5;213m[mpeg @ 0x7ffff06d22d0] [0m[48;5;0m[38;5;196mbuffer underflow st=0 bufi=4740 size=22283
[0m[48;5;0m[38;5;213m[mpeg @ 0x7ffff06d22d0] [0m[48;5;0m[38;5;196mbuffer underflow st=0 bufi=6781 size=22283
[0m[48;5;0m[38;5;213m[mpeg @ 0x7ffff06d22d0] [0m[48;5;0m[38;5;196mbuffer underflow st=0 bufi=8822 size=22283
[0m[48;5;0m[38;5;213m[mpeg @ 0x7ffff06d22d0] [0m[48;5;0m[38;5;196mbuffer underflow st=0 bufi=10863 size=22283
[0m[48;5;0m[38;5;213m[mpeg @ 0x7ffff06d22d0] [0m[48;5;0m[38;5;196mbuffer underflow st=0 bufi=12904 size=22283
[0m[48;5;0m[38;5;213m[mpeg @ 0x7ffff06d22d0] [0m[48;5;0m[38;5;196mbuffer underflow st=0 bufi=14945 size=22283
[0m[48;5;0m[38;5;213m[mpeg @ 0x7ffff06d22d0] [0m[48;5;0m[38;5;196mbuffer underflow st=0 bufi=16986 size=22283
[0m[48;5;0m[38;5;213m[mpeg @ 0x7ffff06d22d0] [0m[48;5;0m[38;5;196mbuffer underflow st=0 bufi=19027 size=22283
[0m[48;5;0m[38;5;213m[mpeg @ 0x7ffff06d22d0] [0m[48;5;0m[38;5;196mbuffer underflow st=0 bufi=21068 size=22283
[0mpts:90000 pts_time:1 dts:86400 dts_time:0.96 duration:0 duration_time:0 stream_index:0
[48;5;0m[38;5;213m[mpeg @ 0x7ffff06d22d0] [0m[48;5;0m[38;5;196mbuffer underflow st=0 bufi=817 size=998
[0mpts:93600 pts_time:1.04 dts:90000 dts_time:1 duration:0 duration_time:0 stream_index:0
pts:97200 pts_time:1.08 dts:93600 dts_time:1.04 duration:0 duration_time:0 stream_index:0
[48;5;0m[38;5;213m[mpeg @ 0x7ffff06d22d0] [0m[48;5;0m[38;5;196mbuffer underflow st=0 bufi=989 size=1058
[0mpts:100800 pts_time:1.12 dts:97200 dts_time:1.08 duration:0 duration_time:0 stream_index:0
pts:104400 pts_time:1.16 dts:100800 dts_time:1.12 duration:0 duration_time:0 stream_index:0
[48;5;0m[38;5;213m[mpeg @ 0x7ffff06d22d0] [0m[48;5;0m[38;5;196mbuffer underflow st=0 bufi=105 size=627
[0mpts:108000 pts_time:1.2 dts:104400 dts_time:1.16 duration:0 duration_time:0 stream_index:0
[48;5;0m[38;5;213m[mpeg @ 0x7ffff06d22d0] [0m[48;5;0m[38;5;196mbuffer underflow st=0 bufi=1510 size=3996
[0m[48;5;0m[38;5;213m[mpeg @ 0x7ffff06d22d0] [0m[48;5;0m[38;5;196mbuffer underflow st=0 bufi=3551 size=3996
[0mpts:111600 pts_time:1.24 dts:108000 dts_time:1.2 duration:0 duration_time:0 stream_index:0
[48;5;0m[38;5;213m[mpeg @ 0x7ffff06d22d0] [0m[48;5;0m[38;5;196mbuffer underflow st=0 bufi=1587 size=1625
[0mpts:115200 pts_time:1.28 dts:111600 dts_time:1.24 duration:0 duration_time:0 stream_index:0
pts:118800 pts_time:1.32 dts:115200 dts_time:1.28 duration:0 duration_time:0 stream_index:0
[48;5;0m[38;5;213m[mpeg @ 0x7ffff06d22d0] [0m[48;5;0m[38;5;196mbuffer underflow st=0 bufi=992 size=1318
[0mpts:122400 pts_time:1.36 dts:118800 dts_time:1.32 duration:0 duration_time:0 stream_index:0
pts:126000 pts_time:1.4 dts:122400 dts_time:1.36 duration:0 duration_time:0 stream_index:0
[48;5;0m[38;5;213m[mpeg @ 0x7ffff06d22d0] [0m[48;5;0m[38;5;196mbuffer underflow st=0 bufi=707 size=1048
[0mpts:129600 pts_time:1.44 dts:126000 dts_time:1.4 duration:0 duration_time:0 stream_index:0
[48;5;0m[38;5;213m[mpeg @ 0x7ffff06d22d0] [0m[48;5;0m[38;5;196mbuffer underflow st=0 bufi=1691 size=24273
[0m[48;5;0m[38;5;213m[mpeg @ 0x7ffff06d22d0] [0m[48;5;0m[38;5;196mbuffer underflow st=0 bufi=3732 size=24273
[0m[48;5;0m[38;5;213m[mpeg @ 0x7ffff06d22d0] [0m[48;5;0m[38;5;196mbuffer underflow st=0 bufi=5773 size=24273
[0m[48;5;0m[38;5;213m[mpeg @ 0x7ffff06d22d0] [0m[48;5;0m[38;5;196mbuffer underflow st=0 bufi=7814 size=24273
[0m[48;5;0m[38;5;213m[mpeg @ 0x7ffff06d22d0] [0m[48;5;0m[38;5;196mbuffer underflow st=0 bufi=9855 size=24273
[0m[48;5;0m[38;5;213m[mpeg @ 0x7ffff06d22d0] [0m[48;5;0m[38;5;196mbuffer underflow st=0 bufi=11896 size=24273
[0m[48;5;0m[38;5;213m[mpeg @ 0x7ffff06d22d0] [0m[48;5;0m[38;5;196mbuffer underflow st=0 bufi=13937 size=24273
[0m[48;5;0m[38;5;213m[mpeg @ 0x7ffff06d22d0] [0m[48;5;0m[38;5;196mbuffer underflow st=0 bufi=15978 size=24273
[0m[48;5;0m[38;5;213m[mpeg @ 0x7ffff06d22d0] [0m[48;5;0m[38;5;196mbuffer underflow st=0 bufi=18007 size=24273
[0m[48;5;0m[38;5;213m[mpeg @ 0x7ffff06d22d0] [0m[48;5;0m[38;5;196mbuffer underflow st=0 bufi=20048 size=24273
[0m[48;5;0m[38;5;213m[mpeg @ 0x7ffff06d22d0] [0m[48;5;0m[38;5;196mbuffer underflow st=0 bufi=22089 size=24273
[0m[48;5;0m[38;5;213m[mpeg @ 0x7ffff06d22d0] [0m[48;5;0m[38;5;196mbuffer underflow st=0 bufi=24130 size=24273
[0mpts:133200 pts_time:1.48 dts:129600 dts_time:1.44 duration:0 duration_time:0 stream_index:0
pts:136800 pts_time:1.52 dts:133200 dts_time:1.48 duration:0 duration_time:0 stream_index:0
pts:140400 pts_time:1.56 dts:136800 dts_time:1.52 duration:0 duration_time:0 stream_index:0
[48;5;0m[38;5;213m[mpeg @ 0x7ffff06d22d0] [0m[48;5;0m[38;5;196mbuffer underflow st=0 bufi=404 size=787
[0mpts:144000 pts_time:1.6 dts:140400 dts_time:1.56 duration:0 duration_time:0 stream_index:0
pts:147600 pts_time:1.64 dts:144000 dts_time:1.6 duration:0 duration_time:0 stream_index:0
pts:151200 pts_time:1.68 dts:147600 dts_time:1.64 duration:0 duration_time:0 stream_index:0
[48;5;0m[38;5;213m[mpeg @ 0x7ffff06d22d0] [0m[48;5;0m[38;5;196mbuffer underflow st=0 bufi=420 size=1640
[0mpts:154800 pts_time:1.72 dts:151200 dts_time:1.68 duration:0 duration_time:0 stream_index:0
pts:158400 pts_time:1.76 dts:154800 dts_time:1.72 duration:0 duration_time:0 stream_index:0
[48;5;0m[38;5;213m[mpeg @ 0x7ffff06d22d0] [0m[48;5;0m[38;5;196mbuffer underflow st=0 bufi=110 size=3124
[0m[48;5;0m[38;5;213m[mpeg @ 0x7ffff06d22d0] [0m[48;5;0m[38;5;196mbuffer underflow st=0 bufi=2151 size=3124
[0mpts:162000 pts_time:1.8 dts:158400 dts_time:1.76 duration:0 duration_time:0 stream_index:0
[48;5;0m[38;5;213m[mpeg @ 0x7ffff06d22d0] [0m[48;5;0m[38;5;196mbuffer underflow st=0 bufi=1059 size=4477
[0m[48;5;0m[38;5;213m[mpeg @ 0x7ffff06d22d0] [0m[48;5;0m[38;5;196mbuffer underflow st=0 bufi=3100 size=4477
[0mpts:165600 pts_time:1.84 dts:162000 dts_time:1.8 duration:0 duration_time:0 stream_index:0
[48;5;0m[38;5;213m[mpeg @ 0x7ffff06d22d0] [0m[48;5;0m[38;5;196mbuffer underflow st=0 bufi=655 size=1286
[0mpts:169200 pts_time:1.88 dts:165600 dts_time:1.84 duration:0 duration_time:0 stream_index:0
pts:172800 pts_time:1.92 dts:169200 dts_time:1.88 duration:0 duration_time:0 stream_index:0
[48;5;0m[38;5;213m[mpeg @ 0x7ffff06d22d0] [0m[48;5;0m[38;5;196mbuffer underflow st=0 bufi=919 size=21026
[0m[48;5;0m[38;5;213m[mpeg @ 0x7ffff06d22d0] [0m[48;5;0m[38;5;196mbuffer underflow st=0 bufi=2960 size=21026
[0m[48;5;0m[38;5;213m[mpeg @ 0x7ffff06d22d0] [0m[48;5;0m[38;5;196mbuffer underflow st=0 bufi=5001 size=21026
[0m[48;5;0m[38;5;213m[mpeg @ 0x7ffff06d22d0] [0m[48;5;0m[38;5;196mbuffer underflow st=0 bufi=7042 size=21026
[0m[48;5;0m[38;5;213m[mpeg @ 0x7ffff06d22d0] [0m[48;5;0m[38;5;196mbuffer underflow st=0 bufi=9083 size=21026
[0m[48;5;0m[38;5;213m[mpeg @ 0x7ffff06d22d0] [0m[48;5;0m[38;5;196mbuffer underflow st=0 bufi=11124 size=21026
[0m[48;5;0m[38;5;213m[mpeg @ 0x7ffff06d22d0] [0m[48;5;0m[38;5;196mbuffer underflow st=0 bufi=13165 size=21026
[0m[48;5;0m[38;5;213m[mpeg @ 0x7ffff06d22d0] [0m[48;5;0m[38;5;196mbuffer underflow st=0 bufi=15206 size=21026
[0m[48;5;0m[38;5;213m[mpeg @ 0x7ffff06d22d0] [0m[48;5;0m[38;5;196mbuffer underflow st=0 bufi=17247 size=21026
[0m[48;5;0m[38;5;213m[mpeg @ 0x7ffff06d22d0] [0m[48;5;0m[38;5;196mbuffer underflow st=0 bufi=19288 size=21026
[0mpts:176400 pts_time:1.96 dts:172800 dts_time:1.92 duration:0 duration_time:0 stream_index:0
[48;5;0m[38;5;213m[mpeg @ 0x7ffff06d22d0] [0m[48;5;0m[38;5;196mbuffer underflow st=0 bufi=294 size=356
[0mpts:180000 pts_time:2 dts:176400 dts_time:1.96 duration:0 duration_time:0 stream_index:0
pts:183600 pts_time:2.04 dts:180000 dts_time:2 duration:0 duration_time:0 stream_index:0
[48;5;0m[38;5;213m[mpeg @ 0x7ffff06d22d0] [0m[48;5;0m[38;5;196mbuffer underflow st=0 bufi=466 size=913
[0mpts:187200 pts_time:2.08 dts:183600 dts_time:2.04 duration:0 duration_time:0 stream_index:0
pts:190800 pts_time:2.12 dts:187200 dts_time:2.08 duration:0 duration_time:0 stream_index:0
pts:194400 pts_time:2.16 dts:190800 dts_time:2.12 duration:0 duration_time:0 stream_index:0
[48;5;0m[38;5;213m[mpeg @ 0x7ffff06d22d0] [0m[48;5;0m[38;5;196mbuffer underflow st=0 bufi=281 size=2894
[0m[48;5;0m[38;5;213m[mpeg @ 0x7ffff06d22d0] [0m[48;5;0m[38;5;196mbuffer underflow st=0 bufi=2322 size=2894
[0mpts:198000 pts_time:2.2 dts:194400 dts_time:2.16 duration:0 duration_time:0 stream_index:0
pts:201600 pts_time:2.24 dts:198000 dts_time:2.2 duration:0 duration_time:0 stream_index:0
pts:205200 pts_time:2.28 dts:201600 dts_time:2.24 duration:0 duration_time:0 stream_index:0
[48;5;0m[38;5;213m[mpeg @ 0x7ffff06d22d0] [0m[48;5;0m[38;5;196mbuffer underflow st=0 bufi=1192 size=2709
[0mpts:208800 pts_time:2.32 dts:205200 dts_time:2.28 duration:0 duration_time:0 stream_index:0
[48;5;0m[38;5;213m[mpeg @ 0x7ffff06d22d0] [0m[48;5;0m[38;5;196mbuffer underflow st=0 bufi=515 size=858
[0mpts:212400 pts_time:2.36 dts:208800 dts_time:2.32 duration:0 duration_time:0 stream_index:0
pts:216000 pts_time:2.4 dts:212400 dts_time:2.36 duration:0 duration_time:0 stream_index:0
[48;5;0m[38;5;213m[mpeg @ 0x7ffff06d22d0] [0m[48;5;0m[38;5;196mbuffer underflow st=0 bufi=1004 size=24977
[0m[48;5;0m[38;5;213m[mpeg @ 0x7ffff06d22d0] [0m[48;5;0m[38;5;196mbuffer underflow st=0 bufi=3045 size=24977
[0m[48;5;0m[38;5;213m[mpeg @ 0x7ffff06d22d0] [0m[48;5;0m[38;5;196mbuffer underflow st=0 bufi=5086 size=24977
[0m[48;5;0m[38;5;213m[mpeg @ 0x7ffff06d22d0] [0m[48;5;0m[38;5;196mbuffer underflow st=0 bufi=7127 size=24977
[0m[48;5;0m[38;5;213m[mpeg @ 0x7ffff06d22d0] [0m[48;5;0m[38;5;196mbuffer underflow st=0 bufi=9168 size=24977
[0m[48;5;0m[38;5;213m[mpeg @ 0x7ffff06d22d0] [0m[48;5;0m[38;5;196mbuffer underflow st=0 bufi=11209 size=24977
[0m[48;5;0m[38;5;213m[mpeg @ 0x7ffff06d22d0] [0m[48;5;0m[38;5;196mbuffer underflow st=0 bufi=13250 size=24977
[0m[48;5;0m[38;5;213m[mpeg @ 0x7ffff06d22d0] [0m[48;5;0m[38;5;196mbuffer underflow st=0 bufi=15291 size=24977
[0m[48;5;0m[38;5;213m[mpeg @ 0x7ffff06d22d0] [0m[48;5;0m[38;5;196mbuffer underflow st=0 bufi=17332 size=24977
[0m[48;5;0m[38;5;213m[mpeg @ 0x7ffff06d22d0] [0m[48;5;0m[38;5;196mbuffer underflow st=0 bufi=19373 size=24977
[0m[48;5;0m[38;5;213m[mpeg @ 0x7ffff06d22d0] [0m[48;5;0m[38;5;196mbuffer underflow st=0 bufi=21414 size=24977
[0m[48;5;0m[38;5;213m[mpeg @ 0x7ffff06d22d0] [0m[48;5;0m[38;5;196mbuffer underflow st=0 bufi=23455 size=24977
[0mpts:219600 pts_time:2.44 dts:216000 dts_time:2.4 duration:0 duration_time:0 stream_index:0
[48;5;0m[38;5;213m[mpeg @ 0x7ffff06d22d0] [0m[48;5;0m[38;5;196mbuffer underflow st=0 bufi=510 size=1071
[0mpts:223200 pts_time:2.48 dts:219600 dts_time:2.44 duration:0 duration_time:0 stream_index:0
pts:226800 pts_time:2.52 dts:223200 dts_time:2.48 duration:0 duration_time:0 stream_index:0
[48;5;0m[38;5;213m[mpeg @ 0x7ffff06d22d0] [0m[48;5;0m[38;5;196mbuffer underflow st=0 bufi=1392 size=1573
[0mpts:230400 pts_time:2.56 dts:226800 dts_time:2.52 duration:0 duration_time:0 stream_index:0
[48;5;0m[38;5;213m[mpeg @ 0x7ffff06d22d0] [0m[48;5;0m[38;5;196mbuffer underflow st=0 bufi=1851 size=5841
[0m[48;5;0m[38;5;213m[mpeg @ 0x7ffff06d22d0] [0m[48;5;0m[38;5;196mbuffer underflow st=0 bufi=3892 size=5841
[0mpts:234000 pts_time:2.6 dts:230400 dts_time:2.56 duration:0 duration_time:0 stream_index:0
[48;5;0m[38;5;213m[mpeg @ 0x7ffff06d22d0] [0m[48;5;0m[38;5;196mbuffer underflow st=0 bufi=83 size=902
[0mpts:237600 pts_time:2.64 dts:234000 dts_time:2.6 duration:0 duration_time:0 stream_index:0
pts:241200 pts_time:2.68 dts:237600 dts_time:2.64 duration:0 duration_time:0 stream_index:0
[48;5;0m[38;5;213m[mpeg @ 0x7ffff06d22d0] [0m[48;5;0m[38;5;196mbuffer underflow st=0 bufi=504 size=691
[0mpts:244800 pts_time:2.72 dts:241200 dts_time:2.68 duration:0 duration_time:0 stream_index:0
pts:248400 pts_time:2.76 dts:244800 dts_time:2.72 duration:0 duration_time:0 stream_index:0
[48;5;0m[38;5;213m[mpeg @ 0x7ffff06d22d0] [0m[48;5;0m[38;5;196mbuffer underflow st=0 bufi=411 size=488
[0mpts:252000 pts_time:2.8 dts:248400 dts_time:2.76 duration:0 duration_time:0 stream_index:0
pts:255600 pts_time:2.84 dts:252000 dts_time:2.8 duration:0 duration_time:0 stream_index:0
pts:259200 pts_time:2.88 dts:255600 dts_time:2.84 duration:0 duration_time:0 stream_index:0
[48;5;0m[38;5;213m[mpeg @ 0x7ffff06d22d0] [0m[48;5;0m[38;5;196mbuffer underflow st=0 bufi=275 size=28573
[0m[48;5;0m[38;5;213m[mpeg @ 0x7ffff06d22d0] [0m[48;5;0m[38;5;196mbuffer underflow st=0 bufi=2316 size=28573
[0m[48;5;0m[38;5;213m[mpeg @ 0x7ffff06d22d0] [0m[48;5;0m[38;5;196mbuffer underflow st=0 bufi=4357 size=28573
[0m[48;5;0m[38;5;213m[mpeg @ 0x7ffff06d22d0] [0m[48;5;0m[38;5;196mbuffer underflow st=0 bufi=6398 size=28573
[0m[48;5;0m[38;5;213m[mpeg @ 0x7ffff06d22d0] [0m[48;5;0m[38;5;196mbuffer underflow st=0 bufi=8439 size=28573
[0m[48;5;0m[38;5;213m[mpeg @ 0x7ffff06d22d0] [0m[48;5;0m[38;5;196mbuffer underflow st=0 bufi=10480 size=28573
[0m[48;5;0m[38;5;213m[mpeg @ 0x7ffff06d22d0] [0m[48;5;0m[38;5;196mbuffer underflow st=0 bufi=12509 size=28573
[0m[48;5;0m[38;5;213m[mpeg @ 0x7ffff06d22d0] [0m[48;5;0m[38;5;196mbuffer underflow st=0 bufi=14550 size=28573
[0m[48;5;0m[38;5;213m[mpeg @ 0x7ffff06d22d0] [0m[48;5;0m[38;5;196mbuffer underflow st=0 bufi=16591 size=28573
[0m[48;5;0m[38;5;213m[mpeg @ 0x7ffff06d22d0] [0m[48;5;0m[38;5;196mbuffer underflow st=0 bufi=18632 size=28573
[0m[48;5;0m[38;5;213m[mpeg @ 0x7ffff06d22d0] [0m[48;5;0m[38;5;196mbuffer underflow st=0 bufi=20673 size=28573
[0m[48;5;0m[38;5;213m[mpeg @ 0x7ffff06d22d0] [0m[48;5;0m[38;5;196mbuffer underflow st=0 bufi=22714 size=28573
[0m[48;5;0m[38;5;213m[mpeg @ 0x7ffff06d22d0] [0m[48;5;0m[38;5;196mbuffer underflow st=0 bufi=24755 size=28573
[0m[48;5;0m[38;5;213m[mpeg @ 0x7ffff06d22d0] [0m[48;5;0m[38;5;196mbuffer underflow st=0 bufi=26796 size=28573
[0mpts:262800 pts_time:2.92 dts:259200 dts_time:2.88 duration:0 duration_time:0 stream_index:0
pts:266400 pts_time:2.96 dts:262800 dts_time:2.92 duration:0 duration_time:0 stream_index:0
[48;5;0m[38;5;213m[mpeg @ 0x7ffff06d22d0] [0m[48;5;0m[38;5;196mbuffer underflow st=0 bufi=66 size=321
[0mpts:270000 pts_time:3 dts:266400 dts_time:2.96 duration:0 duration_time:0 stream_index:0
[48;5;0m[38;5;213m[mpeg @ 0x7ffff06d22d0] [0m[48;5;0m[38;5;196mbuffer underflow st=0 bufi=1777 size=3568
[0mpts:273600 pts_time:3.04 dts:270000 dts_time:3 duration:0 duration_time:0 stream_index:0
pts:277200 pts_time:3.08 dts:273600 dts_time:3.04 duration:0 duration_time:0 stream_index:0
pts:280800 pts_time:3.12 dts:277200 dts_time:3.08 duration:0 duration_time:0 stream_index:0
[48;5;0m[38;5;213m[mpeg @ 0x7ffff06d22d0] [0m[48;5;0m[38;5;196mbuffer underflow st=0 bufi=126 size=135
[0mpts:284400 pts_time:3.16 dts:280800 dts_time:3.12 duration:0 duration_time:0 stream_index:0
pts:288000 pts_time:3.2 dts:284400 dts_time:3.16 duration:0 duration_time:0 stream_index:0
pts:291600 pts_time:3.24 dts:288000 dts_time:3.2 duration:0 duration_time:0 stream_index:0
[48;5;0m[38;5;213m[mpeg @ 0x7ffff06d22d0] [0m[48;5;0m[38;5;196mbuffer underflow st=0 bufi=135 size=1598
[0mpts:295200 pts_time:3.28 dts:291600 dts_time:3.24 duration:0 duration_time:0 stream_index:0
pts:298800 pts_time:3.32 dts:295200 dts_time:3.28 duration:0 duration_time:0 stream_index:0
[48;5;0m[38;5;213m[mpeg @ 0x7ffff06d22d0] [0m[48;5;0m[38;5;196mbuffer underflow st=0 bufi=212 size=909
[0mpts:302400 pts_time:3.36 dts:298800 dts_time:3.32 duration:0 duration_time:0 stream_index:0
[48;5;0m[38;5;213m[mpeg @ 0x7ffff06d22d0] [0m[48;5;0m[38;5;196mbuffer underflow st=0 bufi=1335 size=31458
[0m[48;5;0m[38;5;213m[mpeg @ 0x7ffff06d22d0] [0m[48;5;0m[38;5;196mbuffer underflow st=0 bufi=3376 size=31458
[0m[48;5;0m[38;5;213m[mpeg @ 0x7ffff06d22d0] [0m[48;5;0m[38;5;196mbuffer underflow st=0 bufi=5417 size=31458
[0m[48;5;0m[38;5;213m[mpeg @ 0x7ffff06d22d0] [0m[48;5;0m[38;5;196mbuffer underflow st=0 bufi=7458 size=31458
[0m[48;5;0m[38;5;213m[mpeg @ 0x7ffff06d22d0] [0m[48;5;0m[38;5;196mbuffer underflow st=0 bufi=9499 size=31458
[0m[48;5;0m[38;5;213m[mpeg @ 0x7ffff06d22d0] [0m[48;5;0m[38;5;196mbuffer underflow st=0 bufi=11540 size=31458
[0m[48;5;0m[38;5;213m[mpeg @ 0x7ffff06d22d0] [0m[48;5;0m[38;5;196mbuffer underflow st=0 bufi=13581 size=31458
[0m[48;5;0m[38;5;213m[mpeg @ 0x7ffff06d22d0] [0m[48;5;0m[38;5;196mbuffer underflow st=0 bufi=15622 size=31458
[0m[48;5;0m[38;5;213m[mpeg @ 0x7ffff06d22d0] [0m[48;5;0m[38;5;196mbuffer underflow st=0 bufi=17663 size=31458
[0m[48;5;0m[38;5;213m[mpeg @ 0x7ffff06d22d0] [0m[48;5;0m[38;5;196mbuffer underflow st=0 bufi=19704 size=31458
[0m[48;5;0m[38;5;213m[mpeg @ 0x7ffff06d22d0] [0m[48;5;0m[38;5;196mbuffer underflow st=0 bufi=21745 size=31458
[0m[48;5;0m[38;5;213m[mpeg @ 0x7ffff06d22d0] [0m[48;5;0m[38;5;196mbuffer underflow st=0 bufi=23786 size=31458
[0m[48;5;0m[38;5;213m[mpeg @ 0x7ffff06d22d0] [0m[48;5;0m[38;5;196mbuffer underflow st=0 bufi=25827 size=31458
[0m[48;5;0m[38;5;213m[mpeg @ 0x7ffff06d22d0] [0m[48;5;0m[38;5;196mbuffer underflow st=0 bufi=27868 size=31458
[0m[48;5;0m[38;5;213m[mpeg @ 0x7ffff06d22d0] [0m[48;5;0m[38;5;196mbuffer underflow st=0 bufi=29909 size=31458
[0mpts:306000 pts_time:3.4 dts:302400 dts_time:3.36 duration:0 duration_time:0 stream_index:0
[48;5;0m[38;5;213m[mpeg @ 0x7ffff06d22d0] [0m[48;5;0m[38;5;196mbuffer underflow st=0 bufi=483 size=3153
[0m[48;5;0m[38;5;213m[mpeg @ 0x7ffff06d22d0] [0m[48;5;0m[38;5;196mbuffer underflow st=0 bufi=2524 size=3153
[0mpts:309600 pts_time:3.44 dts:306000 dts_time:3.4 duration:0 duration_time:0 stream_index:0
pts:313200 pts_time:3.48 dts:309600 dts_time:3.44 duration:0 duration_time:0 stream_index:0
[48;5;0m[38;5;213m[mpeg @ 0x7ffff06d22d0] [0m[48;5;0m[38;5;196mbuffer underflow st=0 bufi=342 size=458
[0mpts:316800 pts_time:3.52 dts:313200 dts_time:3.48 duration:0 duration_time:0 stream_index:0
pts:320400 pts_time:3.56 dts:316800 dts_time:3.52 duration:0 duration_time:0 stream_index:0
pts:324000 pts_time:3.6 dts:320400 dts_time:3.56 duration:0 duration_time:0 stream_index:0
[48;5;0m[38;5;213m[mpeg @ 0x7ffff06d22d0] [0m[48;5;0m[38;5;196mbuffer underflow st=0 bufi=141 size=820
[0mpts:327600 pts_time:3.64 dts:324000 dts_time:3.6 duration:0 duration_time:0 stream_index:0
pts:331200 pts_time:3.68 dts:327600 dts_time:3.64 duration:0 duration_time:0 stream_index:0
[48;5;0m[38;5;213m[mpeg @ 0x7ffff06d22d0] [0m[48;5;0m[38;5;196mbuffer underflow st=0 bufi=437 size=540
[0mpts:334800 pts_time:3.72 dts:331200 dts_time:3.68 duration:0 duration_time:0 stream_index:0
[48;5;0m[38;5;213m[mpeg @ 0x7ffff06d22d0] [0m[48;5;0m[38;5;196mbuffer underflow st=0 bufi=1929 size=2375
[0mpts:338400 pts_time:3.76 dts:334800 dts_time:3.72 duration:0 duration_time:0 stream_index:0
pts:342000 pts_time:3.8 dts:338400 dts_time:3.76 duration:0 duration_time:0 stream_index:0
pts:345600 pts_time:3.84 dts:342000 dts_time:3.8 duration:0 duration_time:0 stream_index:0
[48;5;0m[38;5;213m[mpeg @ 0x7ffff06d22d0] [0m[48;5;0m[38;5;196mbuffer underflow st=0 bufi=1390 size=29018
[0m[48;5;0m[38;5;213m[mpeg @ 0x7ffff06d22d0] [0m[48;5;0m[38;5;196mbuffer underflow st=0 bufi=3431 size=29018
[0m[48;5;0m[38;5;213m[mpeg @ 0x7ffff06d22d0] [0m[48;5;0m[38;5;196mbuffer underflow st=0 bufi=5472 size=29018
[0m[48;5;0m[38;5;213m[mpeg @ 0x7ffff06d22d0] [0m[48;5;0m[38;5;196mbuffer underflow st=0 bufi=7513 size=29018
[0m[48;5;0m[38;5;213m[mpeg @ 0x7ffff06d22d0] [0m[48;5;0m[38;5;196mbuffer underflow st=0 bufi=9554 size=29018
[0m[48;5;0m[38;5;213m[mpeg @ 0x7ffff06d22d0] [0m[48;5;0m[38;5;196mbuffer underflow st=0 bufi=11595 size=29018
[0m[48;5;0m[38;5;213m[mpeg @ 0x7ffff06d22d0] [0m[48;5;0m[38;5;196mbuffer underflow st=0 bufi=13636 size=29018
[0m[48;5;0m[38;5;213m[mpeg @ 0x7ffff06d22d0] [0m[48;5;0m[38;5;196mbuffer underflow st=0 bufi=15677 size=29018
[0m[48;5;0m[38;5;213m[mpeg @ 0x7ffff06d22d0] [0m[48;5;0m[38;5;196mbuffer underflow st=0 bufi=17718 size=29018
[0m[48;5;0m[38;5;213m[mpeg @ 0x7ffff06d22d0] [0m[48;5;0m[38;5;196mbuffer underflow st=0 bufi=19759 size=29018
[0m[48;5;0m[38;5;213m[mpeg @ 0x7ffff06d22d0] [0m[48;5;0m[38;5;196mbuffer underflow st=0 bufi=21800 size=29018
[0m[48;5;0m[38;5;213m[mpeg @ 0x7ffff06d22d0] [0m[48;5;0m[38;5;196mbuffer underflow st=0 bufi=23841 size=29018
[0m[48;5;0m[38;5;213m[mpeg @ 0x7ffff06d22d0] [0m[48;5;0m[38;5;196mbuffer underflow st=0 bufi=25882 size=29018
[0m[48;5;0m[38;5;213m[mpeg @ 0x7ffff06d22d0] [0m[48;5;0m[38;5;196mbuffer underflow st=0 bufi=27923 size=29018
[0mpts:349200 pts_time:3.88 dts:345600 dts_time:3.84 duration:0 duration_time:0 stream_index:0
pts:352800 pts_time:3.92 dts:349200 dts_time:3.88 duration:0 duration_time:0 stream_index:0
[48;5;0m[38;5;213m[mpeg @ 0x7ffff06d22d0] [0m[48;5;0m[38;5;196mbuffer underflow st=0 bufi=630 size=3291
[0m[48;5;0m[38;5;213m[mpeg @ 0x7ffff06d22d0] [0m[48;5;0m[38;5;196mbuffer underflow st=0 bufi=2671 size=3291
[0mpts:356400 pts_time:3.96 dts:352800 dts_time:3.92 duration:0 duration_time:0 stream_index:0
pts:360000 pts_time:4 dts:356400 dts_time:3.96 duration:0 duration_time:0 stream_index:0
pts:363600 pts_time:4.04 dts:360000 dts_time:4 duration:0 duration_time:0 stream_index:0
[48;5;0m[38;5;213m[mpeg @ 0x7ffff06d22d0] [0m[48;5;0m[38;5;196mbuffer underflow st=0 bufi=1229 size=26452
[0m[48;5;0m[38;5;213m[mpeg @ 0x7ffff06d22d0] [0m[48;5;0m[38;5;196mbuffer underflow st=0 bufi=3270 size=26452
[0m[48;5;0m[38;5;213m[mpeg @ 0x7ffff06d22d0] [0m[48;5;0m[38;5;196mbuffer underflow st=0 bufi=5299 size=26452
[0m[48;5;0m[38;5;213m[mpeg @ 0x7ffff06d22d0] [0m[48;5;0m[38;5;196mbuffer underflow st=0 bufi=7340 size=26452
[0m[48;5;0m[38;5;213m[mpeg @ 0x7ffff06d22d0] [0m[48;5;0m[38;5;196mbuffer underflow st=0 bufi=9381 size=26452
[0m[48;5;0m[38;5;213m[mpeg @ 0x7ffff06d22d0] [0m[48;5;0m[38;5;196mbuffer underflow st=0 bufi=11422 size=26452
[0m[48;5;0m[38;5;213m[mpeg @ 0x7ffff06d22d0] [0m[48;5;0m[38;5;196mbuffer underflow st=0 bufi=13463 size=26452
[0m[48;5;0m[38;5;213m[mpeg @ 0x7ffff06d22d0] [0m[48;5;0m[38;5;196mbuffer underflow st=0 bufi=15504 size=26452
[0m[48;5;0m[38;5;213m[mpeg @ 0x7ffff06d22d0] [0m[48;5;0m[38;5;196mbuffer underflow st=0 bufi=17545 size=26452
[0m[48;5;0m[38;5;213m[mpeg @ 0x7ffff06d22d0] [0m[48;5;0m[38;5;196mbuffer underflow st=0 bufi=19586 size=26452
[0m[48;5;0m[38;5;213m[mpeg @ 0x7ffff06d22d0] [0m[48;5;0m[38;5;196mbuffer underflow st=0 bufi=21627 size=26452
[0m[48;5;0m[38;5;213m[mpeg @ 0x7ffff06d22d0] [0m[48;5;0m[38;5;196mbuffer underflow st=0 bufi=23668 size=26452
[0m[48;5;0m[38;5;213m[mpeg @ 0x7ffff06d22d0] [0m[48;5;0m[38;5;196mbuffer underflow st=0 bufi=25709 size=26452
[0mpts:367200 pts_time:4.08 dts:363600 dts_time:4.04 duration:0 duration_time:0 stream_index:0
[48;5;0m[38;5;213m[mpeg @ 0x7ffff06d22d0] [0m[48;5;0m[38;5;196mbuffer underflow st=0 bufi=1289 size=4734
[0m[48;5;0m[38;5;213m[mpeg @ 0x7ffff06d22d0] [0m[48;5;0m[38;5;196mbuffer underflow st=0 bufi=3330 size=4734
[0mpts:370800 pts_time:4.12 dts:367200 dts_time:4.08 duration:0 duration_time:0 stream_index:0
[48;5;0m[38;5;213m[mpeg @ 0x7ffff06d22d0] [0m[48;5;0m[38;5;196mbuffer underflow st=0 bufi=628 size=4636
[0m[48;5;0m[38;5;213m[mpeg @ 0x7ffff06d22d0] [0m[48;5;0m[38;5;196mbuffer underflow st=0 bufi=2669 size=4636
[0mpts:374400 pts_time:4.16 dts:370800 dts_time:4.12 duration:0 duration_time:0 stream_index:0
[48;5;0m[38;5;213m[mpeg @ 0x7ffff06d22d0] [0m[48;5;0m[38;5;196mbuffer underflow st=0 bufi=65 size=2844
[0m[48;5;0m[38;5;213m[mpeg @ 0x7ffff06d22d0] [0m[48;5;0m[38;5;196mbuffer underflow st=0 bufi=2106 size=2844
[0mpts:378000 pts_time:4.2 dts:374400 dts_time:4.16 duration:0 duration_time:0 stream_index:0
[48;5;0m[38;5;213m[mpeg @ 0x7ffff06d22d0] [0m[48;5;0m[38;5;196mbuffer underflow st=0 bufi=1294 size=2582
[0mpts:381600 pts_time:4.24 dts:378000 dts_time:4.2 duration:0 duration_time:0 stream_index:0
[48;5;0m[38;5;213m[mpeg @ 0x7ffff06d22d0] [0m[48;5;0m[38;5;196mbuffer underflow st=0 bufi=744 size=3554
[0m[48;5;0m[38;5;213m[mpeg @ 0x7ffff06d22d0] [0m[48;5;0m[38;5;196mbuffer underflow st=0 bufi=2785 size=3554
[0mpts:385200 pts_time:4.28 dts:381600 dts_time:4.24 duration:0 duration_time:0 stream_index:0
[48;5;0m[38;5;213m[mpeg @ 0x7ffff06d22d0] [0m[48;5;0m[38;5;196mbuffer underflow st=0 bufi=1263 size=2514
[0mpts:388800 pts_time:4.32 dts:385200 dts_time:4.28 duration:0 duration_time:0 stream_index:0
[48;5;0m[38;5;213m[mpeg @ 0x7ffff06d22d0] [0m[48;5;0m[38;5;196mbuffer underflow st=0 bufi=781 size=17343
[0m[48;5;0m[38;5;213m[mpeg @ 0x7ffff06d22d0] [0m[48;5;0m[38;5;196mbuffer underflow st=0 bufi=2822 size=17343
[0m[48;5;0m[38;5;213m[mpeg @ 0x7ffff06d22d0] [0m[48;5;0m[38;5;196mbuffer underflow st=0 bufi=4863 size=17343
[0m[48;5;0m[38;5;213m[mpeg @ 0x7ffff06d22d0] [0m[48;5;0m[38;5;196mbuffer underflow st=0 bufi=6904 size=17343
[0m[48;5;0m[38;5;213m[mpeg @ 0x7ffff06d22d0] [0m[48;5;0m[38;5;196mbuffer underflow st=0 bufi=8945 size=17343
[0m[48;5;0m[38;5;213m[mpeg @ 0x7ffff06d22d0] [0m[48;5;0m[38;5;196mbuffer underflow st=0 bufi=10986 size=17343
[0m[48;5;0m[38;5;213m[mpeg @ 0x7ffff06d22d0] [0m[48;5;0m[38;5;196mbuffer underflow st=0 bufi=13027 size=17343
[0m[48;5;0m[38;5;213m[mpeg @ 0x7ffff06d22d0] [0m[48;5;0m[38;5;196mbuffer underflow st=0 bufi=15068 size=17343
[0m[48;5;0m[38;5;213m[mpeg @ 0x7ffff06d22d0] [0m[48;5;0m[38;5;196mbuffer underflow st=0 bufi=17109 size=17343
[0mpts:392400 pts_time:4.36 dts:388800 dts_time:4.32 duration:0 duration_time:0 stream_index:0
[48;5;0m[38;5;213m[mpeg @ 0x7ffff06d22d0] [0m[48;5;0m[38;5;196mbuffer underflow st=0 bufi=1798 size=3240
[0mpts:396000 pts_time:4.4 dts:392400 dts_time:4.36 duration:0 duration_time:0 stream_index:0
[48;5;0m[38;5;213m[mpeg @ 0x7ffff06d22d0] [0m[48;5;0m[38;5;196mbuffer underflow st=0 bufi=590 size=2062
[0mpts:399600 pts_time:4.44 dts:396000 dts_time:4.4 duration:0 duration_time:0 stream_index:0
[48;5;0m[38;5;213m[mpeg @ 0x7ffff06d22d0] [0m[48;5;0m[38;5;196mbuffer underflow st=0 bufi=560 size=3442
[0m[48;5;0m[38;5;213m[mpeg @ 0x7ffff06d22d0] [0m[48;5;0m[38;5;196mbuffer underflow st=0 bufi=2601 size=3442
[0mpts:403200 pts_time:4.48 dts:399600 dts_time:4.44 duration:0 duration_time:0 stream_index:0
[48;5;0m[38;5;213m[mpeg @ 0x7ffff06d22d0] [0m[48;5;0m[38;5;196mbuffer underflow st=0 bufi=1191 size=2363
[0mpts:406800 pts_time:4.52 dts:403200 dts_time:4.48 duration:0 duration_time:0 stream_index:0
[48;5;0m[38;5;213m[mpeg @ 0x7ffff06d22d0] [0m[48;5;0m[38;5;196mbuffer underflow st=0 bufi=860 size=2269
[0mpts:410400 pts_time:4.56 dts:406800 dts_time:4.52 duration:0 duration_time:0 stream_index:0
[48;5;0m[38;5;213m[mpeg @ 0x7ffff06d22d0] [0m[48;5;0m[38;5;196mbuffer underflow st=0 bufi=623 size=3063
[0m[48;5;0m[38;5;213m[mpeg @ 0x7ffff06d22d0] [0m[48;5;0m[38;5;196mbuffer underflow st=0 bufi=2664 size=3063
[0mpts:414000 pts_time:4.6 dts:410400 dts_time:4.56 duration:0 duration_time:0 stream_index:0
[48;5;0m[38;5;213m[mpeg @ 0x7ffff06d22d0] [0m[48;5;0m[38;5;196mbuffer underflow st=0 bufi=1633 size=2018
[0mpts:417600 pts_time:4.64 dts:414000 dts_time:4.6 duration:0 duration_time:0 stream_index:0
[48;5;0m[38;5;213m[mpeg @ 0x7ffff06d22d0] [0m[48;5;0m[38;5;196mbuffer underflow st=0 bufi=1647 size=1966
[0mpts:421200 pts_time:4.68 dts:417600 dts_time:4.64 duration:0 duration_time:0 stream_index:0
[48;5;0m[38;5;213m[mpeg @ 0x7ffff06d22d0] [0m[48;5;0m[38;5;196mbuffer underflow st=0 bufi=1713 size=3401
[0mpts:424800 pts_time:4.72 dts:421200 dts_time:4.68 duration:0 duration_time:0 stream_index:0
[48;5;0m[38;5;213m[mpeg @ 0x7ffff06d22d0] [0m[48;5;0m[38;5;196mbuffer underflow st=0 bufi=344 size=2062
[0mpts:428400 pts_time:4.76 dts:424800 dts_time:4.72 duration:0 duration_time:0 stream_index:0
[48;5;0m[38;5;213m[mpeg @ 0x7ffff06d22d0] [0m[48;5;0m[38;5;196mbuffer underflow st=0 bufi=314 size=2336
[0mpts:432000 pts_time:4.8 dts:428400 dts_time:4.76 duration:0 duration_time:0 stream_index:0
[48;5;0m[38;5;213m[mpeg @ 0x7ffff06d22d0] [0m[48;5;0m[38;5;196mbuffer underflow st=0 bufi=10 size=9493
[0m[48;5;0m[38;5;213m[mpeg @ 0x7ffff06d22d0] [0m[48;5;0m[38;5;196mbuffer underflow st=0 bufi=2051 size=9493
[0m[48;5;0m[38;5;213m[mpeg @ 0x7ffff06d22d0] [0m[48;5;0m[38;5;196mbuffer underflow st=0 bufi=4092 size=9493
[0m[48;5;0m[38;5;213m[mpeg @ 0x7ffff06d22d0] [0m[48;5;0m[38;5;196mbuffer underflow st=0 bufi=6133 size=9493
[0m[48;5;0m[38;5;213m[mpeg @ 0x7ffff06d22d0] [0m[48;5;0m[38;5;196mbuffer underflow st=0 bufi=8174 size=9493
[0mpts:435600 pts_time:4.84 dts:432000 dts_time:4.8 duration:0 duration_time:0 stream_index:0
[48;5;0m[38;5;213m[mpeg @ 0x7ffff06d22d0] [0m[48;5;0m[38;5;196mbuffer underflow st=0 bufi=713 size=1885
[0mpts:439200 pts_time:4.88 dts:435600 dts_time:4.84 duration:0 duration_time:0 stream_index:0
[48;5;0m[38;5;213m[mpeg @ 0x7ffff06d22d0] [0m[48;5;0m[38;5;196mbuffer underflow st=0 bufi=860 size=2067
[0mpts:442800 pts_time:4.92 dts:439200 dts_time:4.88 duration:0 duration_time:0 stream_index:0
[48;5;0m[38;5;213m[mpeg @ 0x7ffff06d22d0] [0m[48;5;0m[38;5;196mbuffer underflow st=0 bufi=825 size=2710
[0mpts:446400 pts_time:4.96 dts:442800 dts_time:4.92 duration:0 duration_time:0 stream_index:0
[48;5;0m[38;5;213m[mpeg @ 0x7ffff06d22d0] [0m[48;5;0m[38;5;196mbuffer underflow st=0 bufi=147 size=1700
[0mpts:450000 pts_time:5 dts:446400 dts_time:4.96 duration:0 duration_time:0 stream_index:0
[48;5;0m[38;5;213m[mpeg @ 0x7ffff06d22d0] [0m[48;5;0m[38;5;196mbuffer underflow st=0 bufi=452 size=1879
[0mpts:453600 pts_time:5.04 dts:450000 dts_time:5 duration:0 duration_time:0 stream_index:0
[48;5;0m[38;5;213m[mpeg @ 0x7ffff06d22d0] [0m[48;5;0m[38;5;196mbuffer underflow st=0 bufi=605 size=2541
[0mpts:457200 pts_time:5.08 dts:453600 dts_time:5.04 duration:0 duration_time:0 stream_index:0
[48;5;0m[38;5;213m[mpeg @ 0x7ffff06d22d0] [0m[48;5;0m[38;5;196mbuffer underflow st=0 bufi=96 size=2028
[0mpts:460800 pts_time:5.12 dts:457200 dts_time:5.08 duration:0 duration_time:0 stream_index:0
[48;5;0m[38;5;213m[mpeg @ 0x7ffff06d22d0] [0m[48;5;0m[38;5;196mbuffer underflow st=0 bufi=100 size=2557
[0m[48;5;0m[38;5;213m[mpeg @ 0x7ffff06d22d0] [0m[48;5;0m[38;5;196mbuffer underflow st=0 bufi=2141 size=2557
[0mpts:464400 pts_time:5.16 dts:460800 dts_time:5.12 duration:0 duration_time:0 stream_index:0
[48;5;0m[38;5;213m[mpeg @ 0x7ffff06d22d0] [0m[48;5;0m[38;5;196mbuffer underflow st=0 bufi=1616 size=2106
[0mpts:468000 pts_time:5.2 dts:464400 dts_time:5.16 duration:0 duration_time:0 stream_index:0
[48;5;0m[38;5;213m[mpeg @ 0x7ffff06d22d0] [0m[48;5;0m[38;5;196mbuffer underflow st=0 bufi=1542 size=2606
[0mpts:471600 pts_time:5.24 dts:468000 dts_time:5.2 duration:0 duration_time:0 stream_index:0
[48;5;0m[38;5;213m[mpeg @ 0x7ffff06d22d0] [0m[48;5;0m[38;5;196mbuffer underflow st=0 bufi=968 size=2165
[0mpts:475200 pts_time:5.28 dts:471600 dts_time:5.24 duration:0 duration_time:0 stream_index:0
[48;5;0m[38;5;213m[mpeg @ 0x7ffff06d22d0] [0m[48;5;0m[38;5;196mbuffer underflow st=0 bufi=835 size=10784
[0m[48;5;0m[38;5;213m[mpeg @ 0x7ffff06d22d0] [0m[48;5;0m[38;5;196mbuffer underflow st=0 bufi=2876 size=10784
[0m[48;5;0m[38;5;213m[mpeg @ 0x7ffff06d22d0] [0m[48;5;0m[38;5;196mbuffer underflow st=0 bufi=4917 size=10784
[0m[48;5;0m[38;5;213m[mpeg @ 0x7ffff06d22d0] [0m[48;5;0m[38;5;196mbuffer underflow st=0 bufi=6958 size=10784
[0m[48;5;0m[38;5;213m[mpeg @ 0x7ffff06d22d0] [0m[48;5;0m[38;5;196mbuffer underflow st=0 bufi=8999 size=10784
[0mpts:478800 pts_time:5.32 dts:475200 dts_time:5.28 duration:0 duration_time:0 stream_index:0
[48;5;0m[38;5;213m[mpeg @ 0x7ffff06d22d0] [0m[48;5;0m[38;5;196mbuffer underflow st=0 bufi=247 size=3472
[0m[48;5;0m[38;5;213m[mpeg @ 0x7ffff06d22d0] [0m[48;5;0m[38;5;196mbuffer underflow st=0 bufi=2288 size=3472
[0mpts:482400 pts_time:5.36 dts:478800 dts_time:5.32 duration:0 duration_time:0 stream_index:0
[48;5;0m[38;5;213m[mpeg @ 0x7ffff06d22d0] [0m[48;5;0m[38;5;196mbuffer underflow st=0 bufi=848 size=2350
[0mpts:486000 pts_time:5.4 dts:482400 dts_time:5.36 duration:0 duration_time:0 stream_index:0
[48;5;0m[38;5;213m[mpeg @ 0x7ffff06d22d0] [0m[48;5;0m[38;5;196mbuffer underflow st=0 bufi=530 size=3399
[0m[48;5;0m[38;5;213m[mpeg @ 0x7ffff06d22d0] [0m[48;5;0m[38;5;196mbuffer underflow st=0 bufi=2571 size=3399
[0mpts:489600 pts_time:5.44 dts:486000 dts_time:5.4 duration:0 duration_time:0 stream_index:0
[48;5;0m[38;5;213m[mpeg @ 0x7ffff06d22d0] [0m[48;5;0m[38;5;196mbuffer underflow st=0 bufi=1204 size=2065
[0mpts:493200 pts_time:5.48 dts:489600 dts_time:5.44 duration:0 duration_time:0 stream_index:0
[48;5;0m[38;5;213m[mpeg @ 0x7ffff06d22d0] [0m[48;5;0m[38;5;196mbuffer underflow st=0 bufi=1171 size=1997
[0mpts:496800 pts_time:5.52 dts:493200 dts_time:5.48 duration:0 duration_time:0 stream_index:0
[48;5;0m[38;5;213m[mpeg @ 0x7ffff06d22d0] [0m[48;5;0m[38;5;196mbuffer underflow st=0 bufi=1206 size=3455
[0m[48;5;0m[38;5;213m[mpeg @ 0x7ffff06d22d0] [0m[48;5;0m[38;5;196mbuffer underflow st=0 bufi=3247 size=3455
[0mpts:500400 pts_time:5.56 dts:496800 dts_time:5.52 duration:0 duration_time:0 stream_index:0
[48;5;0m[38;5;213m[mpeg @ 0x7ffff06d22d0] [0m[48;5;0m[38;5;196mbuffer underflow st=0 bufi=1824 size=2210
[0mpts:504000 pts_time:5.6 dts:500400 dts_time:5.56 duration:0 duration_time:0 stream_index:0
[48;5;0m[38;5;213m[mpeg @ 0x7ffff06d22d0] [0m[48;5;0m[38;5;196mbuffer underflow st=0 bufi=1646 size=2768
[0mpts:507600 pts_time:5.64 dts:504000 dts_time:5.6 duration:0 duration_time:0 stream_index:0
[48;5;0m[38;5;213m[mpeg @ 0x7ffff06d22d0] [0m[48;5;0m[38;5;196mbuffer underflow st=0 bufi=910 size=2367
[0mpts:511200 pts_time:5.68 dts:507600 dts_time:5.64 duration:0 duration_time:0 stream_index:0
[48;5;0m[38;5;213m[mpeg @ 0x7ffff06d22d0] [0m[48;5;0m[38;5;196mbuffer underflow st=0 bufi=575 size=2142
[0mpts:514800 pts_time:5.72 dts:511200 dts_time:5.68 duration:0 duration_time:0 stream_index:0
[48;5;0m[38;5;213m[mpeg @ 0x7ffff06d22d0] [0m[48;5;0m[38;5;196mbuffer underflow st=0 bufi=465 size=2380
[0mpts:518400 pts_time:5.76 dts:514800 dts_time:5.72 duration:0 duration_time:0 stream_index:0
[48;5;0m[38;5;213m[mpeg @ 0x7ffff06d22d0] [0m[48;5;0m[38;5;196mbuffer underflow st=0 bufi=117 size=8962
[0m[48;5;0m[38;5;213m[mpeg @ 0x7ffff06d22d0] [0m[48;5;0m[38;5;196mbuffer underflow st=0 bufi=2158 size=8962
[0m[48;5;0m[38;5;213m[mpeg @ 0x7ffff06d22d0] [0m[48;5;0m[38;5;196mbuffer underflow st=0 bufi=4199 size=8962
[0m[48;5;0m[38;5;213m[mpeg @ 0x7ffff06d22d0] [0m[48;5;0m[38;5;196mbuffer underflow st=0 bufi=6240 size=8962
[0m[48;5;0m[38;5;213m[mpeg @ 0x7ffff06d22d0] [0m[48;5;0m[38;5;196mbuffer underflow st=0 bufi=8281 size=8962
[0mpts:522000 pts_time:5.8 dts:518400 dts_time:5.76 duration:0 duration_time:0 stream_index:0
[48;5;0m[38;5;213m[mpeg @ 0x7ffff06d22d0] [0m[48;5;0m[38;5;196mbuffer underflow st=0 bufi=1351 size=1870
[0mpts:525600 pts_time:5.84 dts:522000 dts_time:5.8 duration:0 duration_time:0 stream_index:0
[48;5;0m[38;5;213m[mpeg @ 0x7ffff06d22d0] [0m[48;5;0m[38;5;196mbuffer underflow st=0 bufi=1513 size=2064
[0mpts:529200 pts_time:5.88 dts:525600 dts_time:5.84 duration:0 duration_time:0 stream_index:0
[48;5;0m[38;5;213m[mpeg @ 0x7ffff06d22d0] [0m[48;5;0m[38;5;196mbuffer underflow st=0 bufi=1481 size=2759
[0mpts:532800 pts_time:5.92 dts:529200 dts_time:5.88 duration:0 duration_time:0 stream_index:0
[48;5;0m[38;5;213m[mpeg @ 0x7ffff06d22d0] [0m[48;5;0m[38;5;196mbuffer underflow st=0 bufi=754 size=1679
[0mpts:536400 pts_time:5.96 dts:532800 dts_time:5.92 duration:0 duration_time:0 stream_index:0
[48;5;0m[38;5;213m[mpeg @ 0x7ffff06d22d0] [0m[48;5;0m[38;5;196mbuffer underflow st=0 bufi=1107 size=1903
[0mpts:540000 pts_time:6 dts:536400 dts_time:5.96 duration:0 duration_time:0 stream_index:0
[48;5;0m[38;5;213m[mpeg @ 0x7ffff06d22d0] [0m[48;5;0m[38;5;196mbuffer underflow st=0 bufi=1236 size=2575
[0mpts:543600 pts_time:6.04 dts:540000 dts_time:6 duration:0 duration_time:0 stream_index:0
[48;5;0m[38;5;213m[mpeg @ 0x7ffff06d22d0] [0m[48;5;0m[38;5;196mbuffer underflow st=0 bufi=693 size=2145
[0mpts:547200 pts_time:6.08 dts:543600 dts_time:6.04 duration:0 duration_time:0 stream_index:0
[48;5;0m[38;5;213m[mpeg @ 0x7ffff06d22d0] [0m[48;5;0m[38;5;196mbuffer underflow st=0 bufi=580 size=2179
[0mpts:550800 pts_time:6.12 dts:547200 dts_time:6.08 duration:0 duration_time:0 stream_index:0
[48;5;0m[38;5;213m[mpeg @ 0x7ffff06d22d0] [0m[48;5;0m[38;5;196mbuffer underflow st=0 bufi=433 size=1688
[0mpts:554400 pts_time:6.16 dts:550800 dts_time:6.12 duration:0 duration_time:0 stream_index:0
[48;5;0m[38;5;213m[mpeg @ 0x7ffff06d22d0] [0m[48;5;0m[38;5;196mbuffer underflow st=0 bufi=777 size=2632
[0mpts:558000 pts_time:6.2 dts:554400 dts_time:6.16 duration:0 duration_time:0 stream_index:0
[48;5;0m[38;5;213m[mpeg @ 0x7ffff06d22d0] [0m[48;5;0m[38;5;196mbuffer underflow st=0 bufi=177 size=1782
[0mpts:561600 pts_time:6.24 dts:558000 dts_time:6.2 duration:0 duration_time:0 stream_index:0
[48;5;0m[38;5;213m[mpeg @ 0x7ffff06d22d0] [0m[48;5;0m[38;5;196mbuffer underflow st=0 bufi=427 size=10423
[0m[48;5;0m[38;5;213m[mpeg @ 0x7ffff06d22d0] [0m[48;5;0m[38;5;196mbuffer underflow st=0 bufi=2468 size=10423
[0m[48;5;0m[38;5;213m[mpeg @ 0x7ffff06d22d0] [0m[48;5;0m[38;5;196mbuffer underflow st=0 bufi=4509 size=10423
[0m[48;5;0m[38;5;213m[mpeg @ 0x7ffff06d22d0] [0m[48;5;0m[38;5;196mbuffer underflow st=0 bufi=6550 size=10423
[0m[48;5;0m[38;5;213m[mpeg @ 0x7ffff06d22d0] [0m[48;5;0m[38;5;196mbuffer underflow st=0 bufi=8591 size=10423
[0mpts:565200 pts_time:6.28 dts:561600 dts_time:6.24 duration:0 duration_time:0 stream_index:0
[48;5;0m[38;5;213m[mpeg @ 0x7ffff06d22d0] [0m[48;5;0m[38;5;196mbuffer underflow st=0 bufi=200 size=2843
[0m[48;5;0m[38;5;213m[mpeg @ 0x7ffff06d22d0] [0m[48;5;0m[38;5;196mbuffer underflow st=0 bufi=2241 size=2843
[0mpts:568800 pts_time:6.32 dts:565200 dts_time:6.28 duration:0 duration_time:0 stream_index:0
[48;5;0m[38;5;213m[mpeg @ 0x7ffff06d22d0] [0m[48;5;0m[38;5;196mbuffer underflow st=0 bufi=1430 size=2054
[0mpts:572400 pts_time:6.36 dts:568800 dts_time:6.32 duration:0 duration_time:0 stream_index:0
[48;5;0m[38;5;213m[mpeg @ 0x7ffff06d22d0] [0m[48;5;0m[38;5;196mbuffer underflow st=0 bufi=1408 size=2850
[0mpts:576000 pts_time:6.4 dts:572400 dts_time:6.36 duration:0 duration_time:0 stream_index:0
[48;5;0m[38;5;213m[mpeg @ 0x7ffff06d22d0] [0m[48;5;0m[38;5;196mbuffer underflow st=0 bufi=578 size=1783
[0mpts:579600 pts_time:6.44 dts:576000 dts_time:6.4 duration:0 duration_time:0 stream_index:0
[48;5;0m[38;5;213m[mpeg @ 0x7ffff06d22d0] [0m[48;5;0m[38;5;196mbuffer underflow st=0 bufi=827 size=1607
[0mpts:583200 pts_time:6.48 dts:579600 dts_time:6.44 duration:0 duration_time:0 stream_index:0
[48;5;0m[38;5;213m[mpeg @ 0x7ffff06d22d0] [0m[48;5;0m[38;5;196mbuffer underflow st=0 bufi=1252 size=2830
[0mpts:586800 pts_time:6.52 dts:583200 dts_time:6.48 duration:0 duration_time:0 stream_index:0
[48;5;0m[38;5;213m[mpeg @ 0x7ffff06d22d0] [0m[48;5;0m[38;5;196mbuffer underflow st=0 bufi=454 size=1824
[0mpts:590400 pts_time:6.56 dts:586800 dts_time:6.52 duration:0 duration_time:0 stream_index:0
[48;5;0m[38;5;213m[mpeg @ 0x7ffff06d22d0] [0m[48;5;0m[38;5;196mbuffer underflow st=0 bufi=662 size=2322
[0mpts:594000 pts_time:6.6 dts:590400 dts_time:6.56 duration:0 duration_time:0 stream_index:0
[48;5;0m[38;5;213m[mpeg @ 0x7ffff06d22d0] [0m[48;5;0m[38;5;196mbuffer underflow st=0 bufi=372 size=1928
[0mpts:597600 pts_time:6.64 dts:594000 dts_time:6.6 duration:0 duration_time:0 stream_index:0
[48;5;0m[38;5;213m[mpeg @ 0x7ffff06d22d0] [0m[48;5;0m[38;5;196mbuffer underflow st=0 bufi=476 size=2349
[0mpts:601200 pts_time:6.68 dts:597600 dts_time:6.64 duration:0 duration_time:0 stream_index:0
[48;5;0m[38;5;213m[mpeg @ 0x7ffff06d22d0] [0m[48;5;0m[38;5;196mbuffer underflow st=0 bufi=159 size=2110
[0mpts:604800 pts_time:6.72 dts:601200 dts_time:6.68 duration:0 duration_time:0 stream_index:0
[48;5;0m[38;5;213m[mpeg @ 0x7ffff06d22d0] [0m[48;5;0m[38;5;196mbuffer underflow st=0 bufi=81 size=8958
[0m[48;5;0m[38;5;213m[mpeg @ 0x7ffff06d22d0] [0m[48;5;0m[38;5;196mbuffer underflow st=0 bufi=2122 size=8958
[0m[48;5;0m[38;5;213m[mpeg @ 0x7ffff06d22d0] [0m[48;5;0m[38;5;196mbuffer underflow st=0 bufi=4163 size=8958
[0m[48;5;0m[38;5;213m[mpeg @ 0x7ffff06d22d0] [0m[48;5;0m[38;5;196mbuffer underflow st=0 bufi=6204 size=8958
[0m[48;5;0m[38;5;213m[mpeg @ 0x7ffff06d22d0] [0m[48;5;0m[38;5;196mbuffer underflow st=0 bufi=8245 size=8958
[0mpts:608400 pts_time:6.76 dts:604800 dts_time:6.72 duration:0 duration_time:0 stream_index:0
[48;5;0m[38;5;213m[mpeg @ 0x7ffff06d22d0] [0m[48;5;0m[38;5;196mbuffer underflow st=0 bufi=1319 size=1835
[0mpts:612000 pts_time:6.8 dts:608400 dts_time:6.76 duration:0 duration_time:0 stream_index:0
[48;5;0m[38;5;213m[mpeg @ 0x7ffff06d22d0] [0m[48;5;0m[38;5;196mbuffer underflow st=0 bufi=1516 size=2036
[0mpts:615600 pts_time:6.84 dts:612000 dts_time:6.8 duration:0 duration_time:0 stream_index:0
[48;5;0m[38;5;213m[mpeg @ 0x7ffff06d22d0] [0m[48;5;0m[38;5;196mbuffer underflow st=0 bufi=1512 size=2707
[0mpts:619200 pts_time:6.88 dts:615600 dts_time:6.84 duration:0 duration_time:0 stream_index:0
[48;5;0m[38;5;213m[mpeg @ 0x7ffff06d22d0] [0m[48;5;0m[38;5;196mbuffer underflow st=0 bufi=837 size=1685
[0mpts:622800 pts_time:6.92 dts:619200 dts_time:6.88 duration:0 duration_time:0 stream_index:0
[48;5;0m[38;5;213m[mpeg @ 0x7ffff06d22d0] [0m[48;5;0m[38;5;196mbuffer underflow st=0 bufi=1184 size=1870
[0mpts:626400 pts_time:6.96 dts:622800 dts_time:6.92 duration:0 duration_time:0 stream_index:0
[48;5;0m[38;5;213m[mpeg @ 0x7ffff06d22d0] [0m[48;5;0m[38;5;196mbuffer underflow st=0 bufi=1346 size=2537
[0mpts:630000 pts_time:7 dts:626400 dts_time:6.96 duration:0 duration_time:0 stream_index:0
[48;5;0m[38;5;213m[mpeg @ 0x7ffff06d22d0] [0m[48;5;0m[38;5;196mbuffer underflow st=0 bufi=841 size=2052
[0mpts:633600 pts_time:7.04 dts:630000 dts_time:7 duration:0 duration_time:0 stream_index:0
[48;5;0m[38;5;213m[mpeg @ 0x7ffff06d22d0] [0m[48;5;0m[38;5;196mbuffer underflow st=0 bufi=821 size=2262
[0mpts:637200 pts_time:7.08 dts:633600 dts_time:7.04 duration:0 duration_time:0 stream_index:0
[48;5;0m[38;5;213m[mpeg @ 0x7ffff06d22d0] [0m[48;5;0m[38;5;196mbuffer underflow st=0 bufi=591 size=1685
[0mpts:640800 pts_time:7.12 dts:637200 dts_time:7.08 duration:0 duration_time:0 stream_index:0
[48;5;0m[38;5;213m[mpeg @ 0x7ffff06d22d0] [0m[48;5;0m[38;5;196mbuffer underflow st=0 bufi=938 size=2521
[0mpts:644400 pts_time:7.16 dts:640800 dts_time:7.12 duration:0 duration_time:0 stream_index:0
[48;5;0m[38;5;213m[mpeg @ 0x7ffff06d22d0] [0m[48;5;0m[38;5;196mbuffer underflow st=0 bufi=449 size=1878
[0mpts:648000 pts_time:7.2 dts:644400 dts_time:7.16 duration:0 duration_time:0 stream_index:0
[48;5;0m[38;5;213m[mpeg @ 0x7ffff06d22d0] [0m[48;5;0m[38;5;196mbuffer underflow st=0 bufi=603 size=10779
[0m[48;5;0m[38;5;213m[mpeg @ 0x7ffff06d22d0] [0m[48;5;0m[38;5;196mbuffer underflow st=0 bufi=2644 size=10779
[0m[48;5;0m[38;5;213m[mpeg @ 0x7ffff06d22d0] [0m[48;5;0m[38;5;196mbuffer underflow st=0 bufi=4685 size=10779
[0m[48;5;0m[38;5;213m[mpeg @ 0x7ffff06d22d0] [0m[48;5;0m[38;5;196mbuffer underflow st=0 bufi=6726 size=10779
[0m[48;5;0m[38;5;213m[mpeg @ 0x7ffff06d22d0] [0m[48;5;0m[38;5;196mbuffer underflow st=0 bufi=8767 size=10779
[0mpts:651600 pts_time:7.24 dts:648000 dts_time:7.2 duration:0 duration_time:0 stream_index:0
[48;5;0m[38;5;213m[mpeg @ 0x7ffff06d22d0] [0m[48;5;0m[38;5;196mbuffer underflow st=0 bufi=20 size=3415
[0m[48;5;0m[38;5;213m[mpeg @ 0x7ffff06d22d0] [0m[48;5;0m[38;5;196mbuffer underflow st=0 bufi=2061 size=3415
[0mpts:655200 pts_time:7.28 dts:651600 dts_time:7.24 duration:0 duration_time:0 stream_index:0
[48;5;0m[38;5;213m[mpeg @ 0x7ffff06d22d0] [0m[48;5;0m[38;5;196mbuffer underflow st=0 bufi=678 size=2343
[0mpts:658800 pts_time:7.32 dts:655200 dts_time:7.28 duration:0 duration_time:0 stream_index:0
[48;5;0m[38;5;213m[mpeg @ 0x7ffff06d22d0] [0m[48;5;0m[38;5;196mbuffer underflow st=0 bufi=367 size=3421
[0m[48;5;0m[38;5;213m[mpeg @ 0x7ffff06d22d0] [0m[48;5;0m[38;5;196mbuffer underflow st=0 bufi=2408 size=3421
[0mpts:662400 pts_time:7.36 dts:658800 dts_time:7.32 duration:0 duration_time:0 stream_index:0
[48;5;0m[38;5;213m[mpeg @ 0x7ffff06d22d0] [0m[48;5;0m[38;5;196mbuffer underflow st=0 bufi=1019 size=2102
[0mpts:666000 pts_time:7.4 dts:662400 dts_time:7.36 duration:0 duration_time:0 stream_index:0
[48;5;0m[38;5;213m[mpeg @ 0x7ffff06d22d0] [0m[48;5;0m[38;5;196mbuffer underflow st=0 bufi=949 size=2029
[0mpts:669600 pts_time:7.44 dts:666000 dts_time:7.4 duration:0 duration_time:0 stream_index:0
[48;5;0m[38;5;213m[mpeg @ 0x7ffff06d22d0] [0m[48;5;0m[38;5;196mbuffer underflow st=0 bufi=952 size=3437
[0m[48;5;0m[38;5;213m[mpeg @ 0x7ffff06d22d0] [0m[48;5;0m[38;5;196mbuffer underflow st=0 bufi=2993 size=3437
[0mpts:673200 pts_time:7.48 dts:669600 dts_time:7.44 duration:0 duration_time:0 stream_index:0
[48;5;0m[38;5;213m[mpeg @ 0x7ffff06d22d0] [0m[48;5;0m[38;5;196mbuffer underflow st=0 bufi=1588 size=2235
[0mpts:676800 pts_time:7.52 dts:673200 dts_time:7.48 duration:0 duration_time:0 stream_index:0
[48;5;0m[38;5;213m[mpeg @ 0x7ffff06d22d0] [0m[48;5;0m[38;5;196mbuffer underflow st=0 bufi=1385 size=2779
[0mpts:680400 pts_time:7.56 dts:676800 dts_time:7.52 duration:0 duration_time:0 stream_index:0
[48;5;0m[38;5;213m[mpeg @ 0x7ffff06d22d0] [0m[48;5;0m[38;5;196mbuffer underflow st=0 bufi=638 size=2835
[0m[48;5;0m[38;5;213m[mpeg @ 0x7ffff06d22d0] [0m[48;5;0m[38;5;196mbuffer underflow st=0 bufi=2679 size=2835
[0mpts:684000 pts_time:7.6 dts:680400 dts_time:7.56 duration:0 duration_time:0 stream_index:0
[48;5;0m[38;5;213m[mpeg @ 0x7ffff06d22d0] [0m[48;5;0m[38;5;196mbuffer underflow st=0 bufi=1876 size=2651
[0mpts:687600 pts_time:7.64 dts:684000 dts_time:7.6 duration:0 duration_time:0 stream_index:0
[48;5;0m[38;5;213m[mpeg @ 0x7ffff06d22d0] [0m[48;5;0m[38;5;196mbuffer underflow st=0 bufi=1257 size=2986
[0mpts:691200 pts_time:7.68 dts:687600 dts_time:7.64 duration:0 duration_time:0 stream_index:0
[48;5;0m[38;5;213m[mpeg @ 0x7ffff06d22d0] [0m[48;5;0m[38;5;196mbuffer underflow st=0 bufi=303 size=9022
[0m[48;5;0m[38;5;213m[mpeg @ 0x7ffff06d22d0] [0m[48;5;0m[38;5;196mbuffer underflow st=0 bufi=2344 size=9022
[0m[48;5;0m[38;5;213m[mpeg @ 0x7ffff06d22d0] [0m[48;5;0m[38;5;196mbuffer underflow st=0 bufi=4385 size=9022
[0m[48;5;0m[38;5;213m[mpeg @ 0x7ffff06d22d0] [0m[48;5;0m[38;5;196mbuffer underflow st=0 bufi=6426 size=9022
[0m[48;5;0m[38;5;213m[mpeg @ 0x7ffff06d22d0] [0m[48;5;0m[38;5;196mbuffer underflow st=0 bufi=8467 size=9022
[0mpts:694800 pts_time:7.72 dts:691200 dts_time:7.68 duration:0 duration_time:0 stream_index:0
pts:698400 pts_time:7.76 dts:694800 dts_time:7.72 duration:0 duration_time:0 stream_index:0
[48;5;0m[38;5;213m[mpeg @ 0x7ffff06d22d0] [0m[48;5;0m[38;5;196mbuffer underflow st=0 bufi=118 size=1619
[0mpts:702000 pts_time:7.8 dts:698400 dts_time:7.76 duration:0 duration_time:0 stream_index:0
[48;5;0m[38;5;213m[mpeg @ 0x7ffff06d22d0] [0m[48;5;0m[38;5;196mbuffer underflow st=0 bufi=531 size=2342
[0mpts:705600 pts_time:7.84 dts:702000 dts_time:7.8 duration:0 duration_time:0 stream_index:0
[48;5;0m[38;5;213m[mpeg @ 0x7ffff06d22d0] [0m[48;5;0m[38;5;196mbuffer underflow st=0 bufi=221 size=1519
[0mpts:709200 pts_time:7.88 dts:705600 dts_time:7.84 duration:0 duration_time:0 stream_index:0
[48;5;0m[38;5;213m[mpeg @ 0x7ffff06d22d0] [0m[48;5;0m[38;5;196mbuffer underflow st=0 bufi=722 size=1604
[0mpts:712800 pts_time:7.92 dts:709200 dts_time:7.88 duration:0 duration_time:0 stream_index:0
[48;5;0m[38;5;213m[mpeg @ 0x7ffff06d22d0] [0m[48;5;0m[38;5;196mbuffer underflow st=0 bufi=1150 size=2250
[0mpts:716400 pts_time:7.96 dts:712800 dts_time:7.92 duration:0 duration_time:0 stream_index:0
[48;5;0m[38;5;213m[mpeg @ 0x7ffff06d22d0] [0m[48;5;0m[38;5;196mbuffer underflow st=0 bufi=932 size=1744
[0mpts:720000 pts_time:8 dts:716400 dts_time:7.96 duration:0 duration_time:0 stream_index:0
[48;5;0m[38;5;213m[mpeg @ 0x7ffff06d22d0] [0m[48;5;0m[38;5;196mbuffer underflow st=0 bufi=1220 size=2019
[0mpts:723600 pts_time:8.04 dts:720000 dts_time:8 duration:0 duration_time:0 stream_index:0
[48;5;0m[38;5;213m[mpeg @ 0x7ffff06d22d0] [0m[48;5;0m[38;5;196mbuffer underflow st=0 bufi=1233 size=1875
[0mpts:727200 pts_time:8.08 dts:723600 dts_time:8.04 duration:0 duration_time:0 stream_index:0
[48;5;0m[38;5;213m[mpeg @ 0x7ffff06d22d0] [0m[48;5;0m[38;5;196mbuffer underflow st=0 bufi=1390 size=2728
[0mpts:730800 pts_time:8.12 dts:727200 dts_time:8.08 duration:0 duration_time:0 stream_index:0
[48;5;0m[38;5;213m[mpeg @ 0x7ffff06d22d0] [0m[48;5;0m[38;5;196mbuffer underflow st=0 bufi=694 size=1925
[0mpts:734400 pts_time:8.16 dts:730800 dts_time:8.12 duration:0 duration_time:0 stream_index:0
[48;5;0m[38;5;213m[mpeg @ 0x7ffff06d22d0] [0m[48;5;0m[38;5;196mbuffer underflow st=0 bufi=801 size=10516
[0m[48;5;0m[38;5;213m[mpeg @ 0x7ffff06d22d0] [0m[48;5;0m[38;5;196mbuffer underflow st=0 bufi=2842 size=10516
[0m[48;5;0m[38;5;213m[mpeg @ 0x7ffff06d22d0] [0m[48;5;0m[38;5;196mbuffer underflow st=0 bufi=4883 size=10516
[0m[48;5;0m[38;5;213m[mpeg @ 0x7ffff06d22d0] [0m[48;5;0m[38;5;196mbuffer underflow st=0 bufi=6924 size=10516
[0m[48;5;0m[38;5;213m[mpeg @ 0x7ffff06d22d0] [0m[48;5;0m[38;5;196mbuffer underflow st=0 bufi=8965 size=10516
[0mpts:738000 pts_time:8.2 dts:734400 dts_time:8.16 duration:0 duration_time:0 stream_index:0
[48;5;0m[38;5;213m[mpeg @ 0x7ffff06d22d0] [0m[48;5;0m[38;5;196mbuffer underflow st=0 bufi=481 size=2862
[0m[48;5;0m[38;5;213m[mpeg @ 0x7ffff06d22d0] [0m[48;5;0m[38;5;196mbuffer underflow st=0 bufi=2522 size=2862
[0mpts:741600 pts_time:8.24 dts:738000 dts_time:8.2 duration:0 duration_time:0 stream_index:0
[48;5;0m[38;5;213m[mpeg @ 0x7ffff06d22d0] [0m[48;5;0m[38;5;196mbuffer underflow st=0 bufi=1692 size=2062
[0mpts:745200 pts_time:8.28 dts:741600 dts_time:8.24 duration:0 duration_time:0 stream_index:0
[48;5;0m[38;5;213m[mpeg @ 0x7ffff06d22d0] [0m[48;5;0m[38;5;196mbuffer underflow st=0 bufi=1662 size=2890
[0mpts:748800 pts_time:8.32 dts:745200 dts_time:8.28 duration:0 duration_time:0 stream_index:0
[48;5;0m[38;5;213m[mpeg @ 0x7ffff06d22d0] [0m[48;5;0m[38;5;196mbuffer underflow st=0 bufi=804 size=1834
[0mpts:752400 pts_time:8.36 dts:748800 dts_time:8.32 duration:0 duration_time:0 stream_index:0
[48;5;0m[38;5;213m[mpeg @ 0x7ffff06d22d0] [0m[48;5;0m[38;5;196mbuffer underflow st=0 bufi=1002 size=1665
[0mpts:756000 pts_time:8.4 dts:752400 dts_time:8.36 duration:0 duration_time:0 stream_index:0
[48;5;0m[38;5;213m[mpeg @ 0x7ffff06d22d0] [0m[48;5;0m[38;5;196mbuffer underflow st=0 bufi=1369 size=2722
[0mpts:759600 pts_time:8.44 dts:756000 dts_time:8.4 duration:0 duration_time:0 stream_index:0
[48;5;0m[38;5;213m[mpeg @ 0x7ffff06d22d0] [0m[48;5;0m[38;5;196mbuffer underflow st=0 bufi=679 size=1777
[0mpts:763200 pts_time:8.48 dts:759600 dts_time:8.44 duration:0 duration_time:0 stream_index:0
[48;5;0m[38;5;213m[mpeg @ 0x7ffff06d22d0] [0m[48;5;0m[38;5;196mbuffer underflow st=0 bufi=934 size=2440
[0mpts:766800 pts_time:8.52 dts:763200 dts_time:8.48 duration:0 duration_time:0 stream_index:0
[48;5;0m[38;5;213m[mpeg @ 0x7ffff06d22d0] [0m[48;5;0m[38;5;196mbuffer underflow st=0 bufi=526 size=1958
[0mpts:770400 pts_time:8.56 dts:766800 dts_time:8.52 duration:0 duration_time:0 stream_index:0
[48;5;0m[38;5;213m[mpeg @ 0x7ffff06d22d0] [0m[48;5;0m[38;5;196mbuffer underflow st=0 bufi=600 size=2253
[0mpts:774000 pts_time:8.6 dts:770400 dts_time:8.56 duration:0 duration_time:0 stream_index:0
[48;5;0m[38;5;213m[mpeg @ 0x7ffff06d22d0] [0m[48;5;0m[38;5;196mbuffer underflow st=0 bufi=379 size=2224
[0mpts:777600 pts_time:8.64 dts:774000 dts_time:8.6 duration:0 duration_time:0 stream_index:0
[48;5;0m[38;5;213m[mpeg @ 0x7ffff06d22d0] [0m[48;5;0m[38;5;196mbuffer underflow st=0 bufi=187 size=9004
[0m[48;5;0m[38;5;213m[mpeg @ 0x7ffff06d22d0] [0m[48;5;0m[38;5;196mbuffer underflow st=0 bufi=2228 size=9004
[0m[48;5;0m[38;5;213m[mpeg @ 0x7ffff06d22d0] [0m[48;5;0m[38;5;196mbuffer underflow st=0 bufi=4269 size=9004
[0m[48;5;0m[38;5;213m[mpeg @ 0x7ffff06d22d0] [0m[48;5;0m[38;5;196mbuffer underflow st=0 bufi=6310 size=9004
[0m[48;5;0m[38;5;213m[mpeg @ 0x7ffff06d22d0] [0m[48;5;0m[38;5;196mbuffer underflow st=0 bufi=8351 size=9004
[0mpts:781200 pts_time:8.68 dts:777600 dts_time:8.64 duration:0 duration_time:0 stream_index:0
[48;5;0m[38;5;213m[mpeg @ 0x7ffff06d22d0] [0m[48;5;0m[38;5;196mbuffer underflow st=0 bufi=1379 size=1834
[0mpts:784800 pts_time:8.72 dts:781200 dts_time:8.68 duration:0 duration_time:0 stream_index:0
[48;5;0m[38;5;213m[mpeg @ 0x7ffff06d22d0] [0m[48;5;0m[38;5;196mbuffer underflow st=0 bufi=1577 size=2037
[0mpts:788400 pts_time:8.76 dts:784800 dts_time:8.72 duration:0 duration_time:0 stream_index:0
[48;5;0m[38;5;213m[mpeg @ 0x7ffff06d22d0] [0m[48;5;0m[38;5;196mbuffer underflow st=0 bufi=1572 size=2776
[0mpts:792000 pts_time:8.8 dts:788400 dts_time:8.76 duration:0 duration_time:0 stream_index:0
[48;5;0m[38;5;213m[mpeg @ 0x7ffff06d22d0] [0m[48;5;0m[38;5;196mbuffer underflow st=0 bufi=828 size=1690
[0mpts:795600 pts_time:8.84 dts:792000 dts_time:8.8 duration:0 duration_time:0 stream_index:0
[48;5;0m[38;5;213m[mpeg @ 0x7ffff06d22d0] [0m[48;5;0m[38;5;196mbuffer underflow st=0 bufi=1170 size=1945
[0mpts:799200 pts_time:8.88 dts:795600 dts_time:8.84 duration:0 duration_time:0 stream_index:0
[48;5;0m[38;5;213m[mpeg @ 0x7ffff06d22d0] [0m[48;5;0m[38;5;196mbuffer underflow st=0 bufi=1257 size=2529
[0mpts:802800 pts_time:8.92 dts:799200 dts_time:8.88 duration:0 duration_time:0 stream_index:0
[48;5;0m[38;5;213m[mpeg @ 0x7ffff06d22d0] [0m[48;5;0m[38;5;196mbuffer underflow st=0 bufi=760 size=2057
[0mpts:806400 pts_time:8.96 dts:802800 dts_time:8.92 duration:0 duration_time:0 stream_index:0
[48;5;0m[38;5;213m[mpeg @ 0x7ffff06d22d0] [0m[48;5;0m[38;5;196mbuffer underflow st=0 bufi=735 size=2242
[0mpts:810000 pts_time:9 dts:806400 dts_time:8.96 duration:0 duration_time:0 stream_index:0
[48;5;0m[38;5;213m[mpeg @ 0x7ffff06d22d0] [0m[48;5;0m[38;5;196mbuffer underflow st=0 bufi=525 size=1691
[0mpts:813600 pts_time:9.04 dts:810000 dts_time:9 duration:0 duration_time:0 stream_index:0
[48;5;0m[38;5;213m[mpeg @ 0x7ffff06d22d0] [0m[48;5;0m[38;5;196mbuffer underflow st=0 bufi=866 size=2424
[0mpts:817200 pts_time:9.08 dts:813600 dts_time:9.04 duration:0 duration_time:0 stream_index:0
[48;5;0m[38;5;213m[mpeg @ 0x7ffff06d22d0] [0m[48;5;0m[38;5;196mbuffer underflow st=0 bufi=474 size=2025
[0mpts:820800 pts_time:9.12 dts:817200 dts_time:9.08 duration:0 duration_time:0 stream_index:0
[48;5;0m[38;5;213m[mpeg @ 0x7ffff06d22d0] [0m[48;5;0m[38;5;196mbuffer underflow st=0 bufi=481 size=10423
[0m[48;5;0m[38;5;213m[mpeg @ 0x7ffff06d22d0] [0m[48;5;0m[38;5;196mbuffer underflow st=0 bufi=2522 size=10423
[0m[48;5;0m[38;5;213m[mpeg @ 0x7ffff06d22d0] [0m[48;5;0m[38;5;196mbuffer underflow st=0 bufi=4563 size=10423
[0m[48;5;0m[38;5;213m[mpeg @ 0x7ffff06d22d0] [0m[48;5;0m[38;5;196mbuffer underflow st=0 bufi=6604 size=10423
[0m[48;5;0m[38;5;213m[mpeg @ 0x7ffff06d22d0] [0m[48;5;0m[38;5;196mbuffer underflow st=0 bufi=8645 size=10423
[0mpts:824400 pts_time:9.16 dts:820800 dts_time:9.12 duration:0 duration_time:0 stream_index:0
[48;5;0m[38;5;213m[mpeg @ 0x7ffff06d22d0] [0m[48;5;0m[38;5;196mbuffer underflow st=0 bufi=254 size=2866
[0m[48;5;0m[38;5;213m[mpeg @ 0x7ffff06d22d0] [0m[48;5;0m[38;5;196mbuffer underflow st=0 bufi=2295 size=2866
[0mpts:828000 pts_time:9.2 dts:824400 dts_time:9.16 duration:0 duration_time:0 stream_index:0
[48;5;0m[38;5;213m[mpeg @ 0x7ffff06d22d0] [0m[48;5;0m[38;5;196mbuffer underflow st=0 bufi=1461 size=2069
[0mpts:831600 pts_time:9.24 dts:828000 dts_time:9.2 duration:0 duration_time:0 stream_index:0
[48;5;0m[38;5;213m[mpeg @ 0x7ffff06d22d0] [0m[48;5;0m[38;5;196mbuffer underflow st=0 bufi=1424 size=3257
[0mpts:835200 pts_time:9.28 dts:831600 dts_time:9.24 duration:0 duration_time:0 stream_index:0
[48;5;0m[38;5;213m[mpeg @ 0x7ffff06d22d0] [0m[48;5;0m[38;5;196mbuffer underflow st=0 bufi=199 size=2034
[0mpts:838800 pts_time:9.32 dts:835200 dts_time:9.28 duration:0 duration_time:0 stream_index:0
[48;5;0m[38;5;213m[mpeg @ 0x7ffff06d22d0] [0m[48;5;0m[38;5;196mbuffer underflow st=0 bufi=197 size=2051
[0mpts:842400 pts_time:9.36 dts:838800 dts_time:9.32 duration:0 duration_time:0 stream_index:0
[48;5;0m[38;5;213m[mpeg @ 0x7ffff06d22d0] [0m[48;5;0m[38;5;196mbuffer underflow st=0 bufi=178 size=3452
[0m[48;5;0m[38;5;213m[mpeg @ 0x7ffff06d22d0] [0m[48;5;0m[38;5;196mbuffer underflow st=0 bufi=2207 size=3452
[0mpts:846000 pts_time:9.4 dts:842400 dts_time:9.36 duration:0 duration_time:0 stream_index:0
[48;5;0m[38;5;213m[mpeg @ 0x7ffff06d22d0] [0m[48;5;0m[38;5;196mbuffer underflow st=0 bufi=787 size=2178
[0mpts:849600 pts_time:9.44 dts:846000 dts_time:9.4 duration:0 duration_time:0 stream_index:0
[48;5;0m[38;5;213m[mpeg @ 0x7ffff06d22d0] [0m[48;5;0m[38;5;196mbuffer underflow st=0 bufi=641 size=2725
[0m[48;5;0m[38;5;213m[mpeg @ 0x7ffff06d22d0] [0m[48;5;0m[38;5;196mbuffer underflow st=0 bufi=2682 size=2725
[0mpts:853200 pts_time:9.48 dts:849600 dts_time:9.44 duration:0 duration_time:0 stream_index:0
[48;5;0m[38;5;213m[mpeg @ 0x7ffff06d22d0] [0m[48;5;0m[38;5;196mbuffer underflow st=0 bufi=1989 size=2686
[0mpts:856800 pts_time:9.52 dts:853200 dts_time:9.48 duration:0 duration_time:0 stream_index:0
[48;5;0m[38;5;213m[mpeg @ 0x7ffff06d22d0] [0m[48;5;0m[38;5;196mbuffer underflow st=0 bufi=1335 size=2563
[0mpts:860400 pts_time:9.56 dts:856800 dts_time:9.52 duration:0 duration_time:0 stream_index:0
[48;5;0m[38;5;213m[mpeg @ 0x7ffff06d22d0] [0m[48;5;0m[38;5;196mbuffer underflow st=0 bufi=804 size=2845
[0mpts:864000 pts_time:9.6 dts:860400 dts_time:9.56 duration:0 duration_time:0 stream_index:0
[48;5;0m[38;5;213m[mpeg @ 0x7ffff06d22d0] [0m[48;5;0m[38;5;196mbuffer underflow st=0 bufi=0 size=9007
[0m[48;5;0m[38;5;213m[mpeg @ 0x7ffff06d22d0] [0m[48;5;0m[38;5;196mbuffer underflow st=0 bufi=2032 size=9007
[0m[48;5;0m[38;5;213m[mpeg @ 0x7ffff06d22d0] [0m[48;5;0m[38;5;196mbuffer underflow st=0 bufi=4073 size=9007
[0m[48;5;0m[38;5;213m[mpeg @ 0x7ffff06d22d0] [0m[48;5;0m[38;5;196mbuffer underflow st=0 bufi=6114 size=9007
[0m[48;5;0m[38;5;213m[mpeg @ 0x7ffff06d22d0] [0m[48;5;0m[38;5;196mbuffer underflow st=0 bufi=8155 size=9007
[0mpts:867600 pts_time:9.64 dts:864000 dts_time:9.6 duration:0 duration_time:0 stream_index:0
[48;5;0m[38;5;213m[mpeg @ 0x7ffff06d22d0] [0m[48;5;0m[38;5;196mbuffer underflow st=0 bufi=1180 size=2164
[0mpts:871200 pts_time:9.68 dts:867600 dts_time:9.64 duration:0 duration_time:0 stream_index:0
[48;5;0m[38;5;213m[mpeg @ 0x7ffff06d22d0] [0m[48;5;0m[38;5;196mbuffer underflow st=0 bufi=1048 size=2610
[0mpts:874800 pts_time:9.72 dts:871200 dts_time:9.68 duration:0 duration_time:0 stream_index:0
[48;5;0m[38;5;213m[mpeg @ 0x7ffff06d22d0] [0m[48;5;0m[38;5;196mbuffer underflow st=0 bufi=470 size=3554
[0m[48;5;0m[38;5;213m[mpeg @ 0x7ffff06d22d0] [0m[48;5;0m[38;5;196mbuffer underflow st=0 bufi=2511 size=3554
[0mpts:878400 pts_time:9.76 dts:874800 dts_time:9.72 duration:0 duration_time:0 stream_index:0
[48;5;0m[38;5;213m[mpeg @ 0x7ffff06d22d0] [0m[48;5;0m[38;5;196mbuffer underflow st=0 bufi=989 size=1535
[0mpts:882000 pts_time:9.8 dts:878400 dts_time:9.76 duration:0 duration_time:0 stream_index:0
[48;5;0m[38;5;213m[mpeg @ 0x7ffff06d22d0] [0m[48;5;0m[38;5;196mbuffer underflow st=0 bufi=1486 size=2117
[0mpts:885600 pts_time:9.84 dts:882000 dts_time:9.8 duration:0 duration_time:0 stream_index:0
[48;5;0m[38;5;213m[mpeg @ 0x7ffff06d22d0] [0m[48;5;0m[38;5;196mbuffer underflow st=0 bufi=1401 size=2625
[0mpts:889200 pts_time:9.88 dts:885600 dts_time:9.84 duration:0 duration_time:0 stream_index:0
[48;5;0m[38;5;213m[mpeg @ 0x7ffff06d22d0] [0m[48;5;0m[38;5;196mbuffer underflow st=0 bufi=808 size=2235
[0mpts:892800 pts_time:9.92 dts:889200 dts_time:9.88 duration:0 duration_time:0 stream_index:0
[48;5;0m[38;5;213m[mpeg @ 0x7ffff06d22d0] [0m[48;5;0m[38;5;196mbuffer underflow st=0 bufi=605 size=2018
[0mpts:896400 pts_time:9.96 dts:892800 dts_time:9.92 duration:0 duration_time:0 stream_index:0
[48;5;0m[38;5;213m[mpeg @ 0x7ffff06d22d0] [0m[48;5;0m[38;5;196mbuffer underflow st=0 bufi=619 size=1810
[0mpts:900000 pts_time:10 dts:896400 dts_time:9.96 duration:0 duration_time:0 stream_index:0
[48;5;0m[38;5;213m[mpeg @ 0x7ffff06d22d0] [0m[48;5;0m[38;5;196mbuffer underflow st=0 bufi=841 size=2051
[0m